<?xml version="1.0" standalone="no"?>
<!DOCTYPE svg PUBLIC "-//W3C//DTD SVG 20010904//EN"
 "http://www.w3.org/TR/2001/REC-SVG-20010904/DTD/svg10.dtd">
<svg version="1.0" xmlns="http://www.w3.org/2000/svg"
 width="1563.000000pt" height="1563.000000pt" viewBox="0 0 1563.000000 1563.000000"
 preserveAspectRatio="xMidYMid meet">

<g transform="translate(0.000000,1563.000000) scale(0.100000,-0.100000)"
fill="#000000" stroke="none">
<path d="M7532 11850 c-23 -17 -46 -30 -51 -30 -5 0 -14 -6 -20 -14 -7 -8 -28
-17 -47 -21 -30 -5 -51 1 -120 35 -54 26 -92 39 -104 35 -32 -10 -23 -25 14
-25 18 0 39 -7 46 -15 7 -8 21 -15 32 -15 10 0 21 -7 24 -15 4 -8 16 -15 29
-15 13 0 25 -7 29 -15 3 -8 16 -15 30 -15 13 0 26 7 30 15 3 8 17 15 31 15 14
0 25 4 25 9 0 5 20 20 45 32 25 12 45 26 45 31 0 17 52 7 90 -17 22 -14 43
-25 48 -25 5 0 21 -13 37 -30 16 -16 39 -30 51 -30 23 0 86 29 92 43 2 4 9 7
16 7 8 0 25 10 40 21 36 29 75 20 127 -28 22 -21 59 -50 81 -66 38 -25 42 -26
59 -11 10 9 25 14 33 11 8 -3 20 1 26 9 7 8 22 14 34 14 12 0 31 7 42 15 34
26 56 16 132 -61 l75 -75 51 6 c28 4 53 11 56 15 3 4 33 11 67 15 68 8 60 12
138 -80 22 -26 44 -54 48 -61 7 -11 25 -13 90 -8 45 4 86 10 92 15 5 5 24 9
41 9 24 0 34 -5 39 -20 4 -11 18 -33 31 -47 13 -15 27 -37 30 -50 4 -13 10
-23 15 -23 15 0 10 48 -6 54 -8 3 -15 13 -15 23 0 28 -63 93 -88 93 -13 0 -39
-7 -59 -15 -36 -15 -128 -20 -157 -9 -9 3 -16 14 -16 23 0 9 -29 47 -64 84
-57 61 -66 66 -79 52 -9 -8 -30 -15 -47 -15 -17 0 -47 -7 -67 -15 -68 -28
-104 -14 -169 67 -38 47 -74 68 -107 61 -18 -3 -39 -12 -48 -19 -8 -8 -30 -14
-47 -14 -18 0 -35 -7 -40 -16 -15 -27 -71 -10 -120 36 -24 22 -47 40 -52 40
-5 0 -16 8 -25 17 -24 23 -67 20 -127 -9 -29 -15 -69 -34 -89 -43 l-36 -16
-82 56 c-50 33 -93 55 -109 55 -15 0 -46 -14 -70 -30z"/>
<path d="M7110 11802 c-14 -9 -38 -29 -55 -44 -34 -31 -92 -39 -101 -13 -4 9
-19 15 -40 15 -18 0 -37 6 -41 14 -4 7 -25 16 -46 20 -38 7 -40 6 -114 -68
-62 -63 -80 -76 -106 -76 -18 0 -41 7 -51 15 -11 8 -35 15 -53 15 -18 0 -42 6
-53 12 -23 14 -46 4 -64 -27 -6 -10 -19 -27 -28 -37 -10 -10 -18 -22 -18 -28
0 -5 -7 -10 -15 -10 -8 0 -21 -13 -30 -30 -15 -29 -18 -30 -84 -30 -49 0 -72
4 -81 15 -7 9 -29 15 -54 15 -45 0 -61 -13 -96 -77 -11 -20 -23 -39 -27 -42
-4 -3 -17 -23 -28 -45 l-19 -38 -66 6 c-36 3 -84 8 -108 12 -48 7 -82 -13 -82
-48 0 -10 -7 -21 -15 -24 -8 -4 -15 -17 -15 -30 0 -14 -7 -27 -15 -30 -8 -4
-15 -17 -15 -30 0 -13 -9 -28 -20 -34 -11 -6 -17 -16 -14 -25 5 -12 9 -12 30
2 13 8 24 22 24 30 0 8 12 35 28 61 15 26 32 56 37 67 10 18 19 20 99 17 105
-5 156 3 156 24 0 8 9 22 20 31 11 10 20 22 20 27 0 5 11 24 25 42 14 18 25
37 25 43 0 30 63 44 95 21 6 -4 44 -10 86 -14 72 -6 77 -5 92 16 9 13 38 47
65 77 l50 55 68 -2 c37 -1 71 -7 75 -13 3 -6 28 -14 54 -17 l47 -5 74 77 c74
76 100 89 124 61 7 -8 25 -15 40 -15 15 0 41 -7 56 -15 16 -8 47 -15 69 -15
34 0 47 8 93 51 28 28 52 52 52 55 0 9 -26 2 -50 -14z"/>
<path d="M7275 11550 c-26 -11 -12 -12 295 -11 135 1 272 -4 305 -10 33 -5
103 -14 155 -18 52 -4 105 -13 117 -19 12 -7 49 -12 83 -12 33 0 77 -7 97 -15
19 -8 52 -15 72 -15 20 0 49 -7 65 -15 15 -8 42 -15 60 -15 17 0 40 -7 50 -15
11 -8 34 -15 52 -15 17 0 37 -7 44 -15 7 -8 28 -15 47 -15 19 0 41 -7 49 -15
9 -8 24 -15 35 -15 11 0 27 -7 35 -15 9 -8 27 -15 40 -15 14 0 32 -7 40 -15 9
-8 27 -15 40 -15 14 0 32 -7 40 -15 9 -8 24 -15 33 -15 10 0 24 -7 31 -15 7
-8 19 -15 27 -15 7 0 25 -7 38 -16 14 -9 32 -13 41 -10 21 8 8 26 -21 26 -12
0 -25 7 -29 15 -3 8 -14 15 -24 15 -11 0 -25 7 -32 15 -7 8 -22 15 -34 15 -11
0 -30 7 -40 15 -11 8 -28 15 -38 15 -10 0 -26 4 -36 9 -56 30 -105 51 -117 51
-15 0 -23 3 -83 33 -19 9 -46 17 -60 17 -15 0 -40 7 -56 15 -15 8 -48 15 -72
15 -30 0 -46 5 -50 15 -4 10 -21 15 -53 15 -25 1 -57 7 -71 15 -14 8 -46 14
-71 15 -26 0 -66 7 -89 15 -23 8 -72 15 -109 15 -36 0 -91 7 -121 15 -43 12
-121 15 -360 14 -168 0 -314 -4 -325 -9z"/>
<path d="M7016 11515 c-11 -8 -40 -15 -65 -15 -25 -1 -64 -7 -86 -15 -22 -8
-54 -15 -72 -15 -17 0 -34 -4 -38 -9 -3 -6 -26 -13 -50 -17 -58 -8 -58 -24 -1
-24 30 0 46 5 50 15 4 11 21 15 61 15 40 0 57 4 61 15 5 11 22 15 68 15 34 0
66 4 72 9 12 12 54 19 127 20 31 1 57 6 57 11 0 17 -162 12 -184 -5z"/>
<path d="M6575 11413 c-11 -2 -34 -11 -52 -19 -17 -8 -42 -14 -56 -14 -14 0
-29 -4 -32 -10 -3 -5 -16 -10 -29 -10 -12 0 -31 -7 -42 -15 -10 -8 -29 -15
-40 -15 -12 0 -27 -7 -34 -15 -7 -8 -25 -15 -40 -15 -15 0 -33 -7 -40 -15 -7
-8 -23 -15 -36 -15 -12 0 -26 -5 -29 -11 -4 -5 -19 -15 -33 -20 -24 -9 -25
-12 -10 -20 12 -7 34 -1 81 21 35 16 71 30 79 30 9 0 21 7 28 15 7 8 25 15 40
15 15 0 33 7 40 15 7 8 22 15 34 15 11 0 34 7 50 15 15 8 41 15 57 15 17 0 32
6 35 15 4 9 19 15 39 15 41 0 67 9 59 21 -5 9 -34 10 -69 2z"/>
<path d="M9266 11382 c-4 -6 3 -21 15 -33 20 -20 28 -21 115 -15 51 3 100 9
108 12 13 5 17 -1 75 -126 34 -74 64 -90 172 -90 75 0 84 -2 105 -26 14 -14
24 -37 24 -53 0 -16 7 -34 15 -41 8 -7 15 -22 15 -34 0 -12 13 -35 30 -51 27
-26 37 -29 117 -33 94 -4 113 -14 113 -58 0 -13 7 -29 15 -38 8 -8 15 -29 15
-46 0 -63 58 -119 124 -120 11 0 30 -7 40 -15 11 -8 30 -15 41 -15 36 0 52
-30 60 -109 10 -98 39 -150 86 -151 9 0 22 -7 29 -15 7 -8 23 -15 36 -15 12 0
26 -5 29 -11 4 -5 18 -14 31 -19 23 -9 24 -13 24 -103 0 -88 1 -95 28 -125 19
-21 38 -32 55 -32 17 0 27 -5 27 -15 0 -9 9 -15 23 -15 12 -1 35 -11 50 -24
l28 -23 -3 -118 c-3 -112 -2 -119 17 -124 32 -9 107 -60 142 -97 28 -28 31
-37 23 -58 -15 -40 -17 -189 -2 -194 6 -2 12 -10 12 -17 0 -8 9 -16 20 -20 11
-3 28 -17 39 -31 10 -13 24 -24 30 -24 19 0 51 -43 45 -62 -3 -10 -7 -37 -9
-60 -2 -22 -9 -44 -16 -48 -14 -9 -18 -84 -4 -88 6 -1 12 8 13 20 2 13 7 28
12 33 4 6 11 33 15 60 4 28 10 52 15 55 4 3 10 14 14 26 5 16 -5 31 -44 67
-28 26 -53 47 -56 47 -3 0 -21 12 -40 28 -31 25 -34 31 -34 83 0 38 5 61 15
69 9 8 15 30 15 56 0 49 -12 65 -75 104 -22 13 -46 30 -53 37 -8 8 -27 20 -43
28 -34 18 -37 45 -17 151 16 91 3 110 -98 144 -12 4 -44 23 -72 41 -43 28 -49
36 -41 51 7 12 6 38 -1 75 -5 31 -10 71 -10 90 0 26 -6 36 -30 48 -16 8 -38
15 -48 15 -11 0 -25 7 -32 15 -7 8 -23 15 -35 15 -14 0 -32 11 -44 28 -12 15
-25 32 -31 39 -5 7 -10 39 -10 72 0 49 -10 96 -27 120 -1 2 -17 5 -34 7 -18 2
-37 8 -44 14 -7 5 -33 13 -60 16 -64 9 -91 36 -100 101 -4 29 -11 55 -16 59
-5 3 -9 18 -9 34 0 42 -50 70 -126 70 -73 0 -125 25 -138 66 -5 16 -15 41 -22
56 -8 14 -14 34 -14 45 0 10 -8 28 -18 41 -16 20 -27 22 -122 25 -79 1 -108 6
-118 17 -7 8 -31 54 -55 103 -23 48 -47 87 -54 87 -7 0 -13 5 -13 11 0 7 -14
9 -42 4 -24 -3 -74 -9 -111 -11 -57 -5 -71 -3 -81 12 -9 11 -15 13 -20 6z"/>
<path d="M7300 11280 c-16 -16 -18 -25 -10 -40 5 -10 10 -30 10 -43 0 -31 23
-51 50 -42 13 4 20 15 20 31 0 24 2 25 56 22 l55 -3 0 -185 0 -185 -25 -20
c-14 -12 -26 -31 -26 -43 0 -21 3 -22 115 -22 l115 0 0 28 c0 34 -10 49 -35
53 -19 4 -20 13 -23 192 l-2 187 45 0 c39 0 45 -3 45 -20 0 -27 43 -44 71 -29
17 9 20 19 17 72 l-3 62 -227 3 c-218 2 -229 1 -248 -18z"/>
<path d="M6856 11225 c-11 -8 -37 -15 -58 -15 -27 0 -40 -5 -48 -20 -14 -26 2
-58 32 -62 15 -2 24 -11 26 -25 2 -12 10 -27 18 -33 8 -7 14 -27 14 -45 0 -18
7 -38 15 -45 8 -7 15 -27 15 -46 0 -20 6 -37 16 -42 18 -10 11 -32 -10 -32 -8
0 -77 61 -155 136 l-141 136 -52 -7 c-50 -6 -118 -32 -118 -46 0 -11 35 -37
55 -41 11 -2 21 -13 23 -25 2 -12 10 -27 18 -33 8 -7 14 -27 14 -44 1 -17 7
-42 15 -56 8 -14 14 -42 15 -63 0 -24 5 -40 15 -43 10 -4 15 -20 15 -44 0 -27
5 -40 18 -45 15 -5 12 -10 -16 -34 -25 -20 -33 -34 -30 -52 4 -29 38 -38 58
-14 7 8 29 15 49 15 20 0 45 7 55 15 11 8 30 15 43 15 18 0 23 6 23 24 0 21
-6 26 -42 33 -35 7 -44 13 -46 33 -2 14 -7 30 -12 35 -4 6 -11 31 -14 57 -4
26 -11 50 -17 53 -10 7 -13 85 -3 85 3 0 38 -31 77 -69 127 -122 172 -161 185
-161 7 0 15 -7 18 -15 9 -22 77 -20 97 3 18 20 22 48 8 56 -5 3 -12 26 -15 51
-4 25 -11 45 -17 45 -5 0 -9 17 -9 39 0 22 -6 44 -15 51 -8 7 -15 27 -15 44 0
17 -7 44 -15 60 -21 39 -20 122 1 130 9 3 14 15 12 28 -2 19 -10 23 -43 25
-24 2 -48 -3 -59 -12z"/>
<path d="M6020 11195 c-7 -8 -18 -15 -25 -15 -7 0 -18 -7 -25 -15 -7 -8 -21
-15 -32 -15 -10 0 -21 -7 -24 -15 -4 -8 -17 -15 -30 -15 -13 0 -24 -4 -24 -9
0 -5 -13 -12 -30 -16 -16 -4 -30 -11 -30 -16 0 -5 -6 -9 -13 -9 -7 0 -20 -9
-30 -20 -9 -11 -24 -20 -32 -20 -8 0 -15 -4 -15 -10 0 -5 -6 -10 -14 -10 -23
0 -69 -41 -57 -53 6 -6 23 1 49 22 22 17 44 31 50 31 5 0 15 7 22 15 7 8 21
15 31 15 11 0 19 3 19 8 0 4 21 19 48 32 26 14 49 28 52 31 3 4 20 10 38 14
17 3 32 10 32 13 0 4 23 18 50 31 28 13 53 28 56 33 9 15 -53 8 -66 -7z"/>
<path d="M8307 11203 c-4 -3 -7 -14 -7 -22 0 -9 -10 -27 -23 -41 -12 -14 -28
-36 -35 -50 -19 -38 -52 -92 -73 -119 -10 -13 -19 -28 -19 -34 0 -5 -10 -20
-22 -32 -13 -12 -33 -39 -44 -61 -16 -28 -29 -40 -48 -42 -25 -3 -27 -7 -24
-40 3 -37 3 -37 55 -42 29 -3 58 -11 65 -18 6 -6 20 -12 30 -12 14 0 18 8 18
38 0 21 -5 43 -12 50 -20 20 19 52 62 52 20 0 40 -4 46 -9 5 -6 25 -13 44 -16
65 -11 95 -81 40 -91 -72 -15 -12 -77 82 -87 55 -5 58 -4 64 19 4 17 1 29 -9
37 -11 9 -17 40 -22 117 -4 58 -11 110 -15 115 -5 6 -10 64 -12 130 -4 146
-14 165 -89 165 -25 0 -49 -3 -52 -7z m51 -229 l-3 -79 -44 -3 c-48 -4 -73 10
-53 30 7 7 12 20 12 29 0 9 7 22 15 29 8 7 15 19 15 27 0 20 43 64 53 54 4 -4
7 -43 5 -87z"/>
<path d="M9180 11173 c0 -5 20 -16 43 -26 23 -10 49 -23 57 -28 8 -5 39 -21
69 -37 29 -15 62 -31 72 -37 11 -5 19 -13 19 -18 0 -4 10 -12 23 -17 29 -13
54 -30 85 -57 14 -13 31 -23 38 -23 7 0 27 -13 43 -29 17 -16 39 -32 50 -36
12 -3 21 -10 21 -14 0 -4 25 -25 55 -47 30 -21 55 -42 55 -46 0 -5 9 -8 20 -8
11 0 20 -4 20 -10 0 -10 36 -50 44 -50 8 0 73 -58 153 -137 46 -46 85 -83 88
-83 3 0 5 5 5 11 0 11 -177 190 -203 206 -14 8 -116 95 -146 124 -9 9 -31 24
-50 35 -19 10 -47 30 -62 44 -45 40 -58 50 -66 50 -4 1 -24 14 -43 30 -19 17
-42 30 -52 30 -10 0 -21 7 -24 15 -4 8 -12 15 -19 15 -7 0 -28 13 -46 30 -19
16 -44 30 -56 30 -14 0 -23 6 -23 15 0 10 -10 15 -30 15 -17 0 -30 5 -30 13 0
6 -18 20 -39 30 -39 18 -71 22 -71 10z"/>
<path d="M5395 11153 c-57 -4 -62 -6 -78 -36 -9 -18 -19 -44 -23 -59 -3 -16
-10 -28 -14 -28 -5 0 -10 -16 -12 -36 -4 -51 -48 -74 -141 -74 -84 0 -127 -25
-127 -75 0 -17 -5 -36 -10 -41 -6 -6 -12 -31 -14 -57 -5 -59 -32 -83 -105 -93
-28 -4 -54 -11 -57 -15 -3 -5 -19 -9 -35 -9 -19 0 -32 -6 -36 -17 -4 -10 -13
-24 -20 -31 -9 -9 -13 -41 -13 -95 0 -82 0 -82 -33 -104 -18 -13 -40 -23 -48
-23 -8 0 -23 -7 -33 -15 -11 -8 -30 -15 -42 -15 -12 0 -33 -9 -46 -20 -23 -18
-26 -28 -30 -118 -5 -110 -23 -152 -64 -152 -13 0 -24 -4 -24 -9 0 -5 -13 -12
-30 -16 -16 -4 -30 -10 -30 -15 0 -5 -10 -12 -22 -16 -13 -3 -31 -15 -41 -25
-15 -16 -16 -25 -8 -57 6 -20 11 -68 11 -105 0 -55 -3 -69 -17 -74 -10 -3 -34
-19 -54 -35 -20 -15 -40 -28 -44 -28 -4 0 -24 -14 -46 -30 -33 -27 -38 -35
-35 -66 2 -19 8 -40 15 -47 14 -14 15 -132 1 -158 -6 -10 -16 -19 -22 -19 -6
0 -33 -20 -59 -45 -26 -25 -55 -45 -64 -45 -10 0 -15 -10 -15 -34 0 -19 4 -37
9 -40 5 -4 12 -25 16 -49 10 -64 36 -137 46 -131 14 8 11 73 -5 102 -7 15 -18
47 -24 71 -12 51 -1 78 35 87 12 3 40 26 63 50 22 24 45 44 50 44 15 0 -1 194
-16 203 -16 9 35 64 91 97 22 13 44 30 48 37 4 7 16 13 27 13 24 0 35 65 27
162 -7 83 0 93 101 139 104 49 102 46 102 164 0 101 0 101 30 123 16 12 39 22
52 22 13 0 32 7 42 15 11 8 27 15 35 15 9 0 28 12 44 25 24 21 28 34 33 97 3
40 10 78 15 84 5 6 7 19 3 27 -4 12 2 18 23 22 15 4 40 13 55 21 14 8 40 14
57 14 16 0 46 8 65 18 30 15 35 23 42 67 3 28 13 59 20 70 8 11 14 31 14 46 0
45 26 58 124 62 82 3 90 5 112 31 13 15 24 38 24 50 0 13 7 29 15 36 8 7 15
24 15 39 0 14 11 39 25 54 24 25 31 27 106 27 60 0 80 3 77 13 -5 13 -39 16
-133 10z"/>
<path d="M8964 11002 c-19 -13 -25 -42 -9 -48 8 -4 15 -15 15 -27 0 -25 -31
-97 -42 -97 -4 0 -8 -9 -8 -19 0 -11 -4 -22 -9 -25 -4 -3 -21 -32 -37 -63 -15
-32 -37 -71 -49 -88 -12 -16 -24 -38 -28 -48 -5 -15 -13 -17 -42 -11 -27 5
-36 3 -41 -10 -7 -19 21 -56 43 -56 7 0 13 -4 13 -8 0 -4 12 -13 28 -19 15 -7
34 -16 42 -21 27 -16 60 -32 65 -32 3 0 5 18 5 39 0 25 -5 41 -15 45 -13 5
-12 11 6 46 12 22 25 43 30 46 5 3 9 14 9 25 0 11 7 22 15 25 8 4 15 17 15 30
0 14 7 27 15 30 8 4 15 17 15 30 0 15 6 24 15 24 13 0 15 -27 15 -186 0 -118
4 -193 11 -207 15 -29 60 -66 80 -67 20 0 59 41 59 63 0 9 4 18 9 21 8 5 27
37 68 118 8 15 18 30 24 33 5 4 9 15 9 26 0 11 7 22 15 25 8 4 15 16 15 28 0
33 42 66 85 66 35 0 36 1 33 32 -2 22 -10 36 -26 44 -13 6 -29 17 -35 23 -6 6
-19 11 -29 11 -10 0 -21 7 -24 15 -4 10 -20 15 -45 15 -34 0 -39 -3 -39 -24 0
-13 7 -29 15 -36 8 -7 15 -18 15 -25 0 -7 -7 -18 -15 -25 -8 -7 -15 -19 -15
-28 0 -8 -6 -23 -14 -31 -7 -9 -29 -45 -48 -79 -19 -35 -39 -65 -44 -65 -5 -1
-11 92 -14 213 -5 205 -6 215 -25 218 -11 2 -27 9 -35 16 -16 12 -76 46 -82
46 -1 0 -8 -4 -14 -8z"/>
<path d="M5584 10935 c-4 -8 -13 -15 -20 -15 -8 0 -17 -7 -20 -15 -4 -8 -15
-15 -25 -15 -10 0 -19 -7 -19 -15 0 -18 14 -19 32 -2 7 7 21 16 31 20 9 3 17
11 17 16 0 5 11 12 25 15 14 4 23 11 20 16 -9 15 -35 12 -41 -5z"/>
<path d="M5424 10826 c-45 -44 -119 -109 -145 -126 -38 -25 -331 -323 -374
-381 -22 -30 -61 -75 -87 -100 -44 -43 -59 -69 -41 -69 17 0 70 46 93 80 33
50 105 132 218 249 51 53 107 115 125 138 18 23 39 43 47 43 8 0 38 20 65 45
28 25 55 49 60 53 6 4 26 20 47 35 20 16 39 34 41 42 11 26 -18 21 -49 -9z"/>
<path d="M5932 10845 c-7 -8 -25 -15 -41 -15 -38 0 -131 -91 -131 -129 0 -14
-6 -33 -13 -42 -15 -20 -13 -87 2 -102 6 -6 11 -23 11 -38 0 -15 7 -32 15 -39
8 -7 15 -19 15 -28 0 -16 78 -95 123 -125 36 -24 167 -24 216 0 20 10 57 41
84 70 l47 53 0 95 c0 53 -4 97 -10 100 -6 4 -16 21 -24 38 -17 40 -121 147
-144 147 -9 1 -28 7 -42 15 -32 19 -91 18 -108 0z m86 -90 c38 -19 122 -111
122 -134 0 -9 7 -25 15 -35 9 -11 15 -41 15 -70 0 -44 -4 -55 -37 -88 -34 -35
-42 -38 -92 -38 -53 0 -57 2 -108 52 -29 29 -53 60 -53 69 0 9 -7 22 -15 29
-11 9 -15 33 -15 89 0 85 13 107 75 129 42 15 58 14 93 -3z"/>
<path d="M7421 10451 c-134 -4 -185 -9 -189 -18 -2 -8 -23 -13 -57 -13 -30 0
-66 -5 -82 -11 -15 -7 -48 -15 -73 -20 -67 -11 -132 -29 -163 -45 -16 -8 -40
-14 -53 -14 -14 0 -27 -7 -30 -15 -4 -8 -16 -15 -28 -15 -29 0 -99 -34 -90
-43 11 -11 36 -8 53 6 23 19 102 47 133 47 15 0 33 7 42 15 8 8 28 15 43 15
16 0 38 7 49 15 10 8 41 15 69 15 28 0 59 7 69 15 11 8 41 15 66 15 25 0 52 6
58 13 10 9 101 13 360 17 191 3 336 8 322 12 -39 11 -296 15 -499 9z"/>
<path d="M10150 10446 c0 -2 19 -23 43 -48 23 -24 51 -56 63 -70 12 -13 30
-31 40 -39 10 -8 27 -29 38 -48 10 -19 26 -41 35 -51 27 -28 55 -63 81 -103
14 -20 28 -37 31 -37 4 0 10 -11 13 -25 4 -14 11 -25 16 -25 6 0 10 -6 10 -13
0 -7 14 -27 30 -45 17 -18 30 -42 30 -53 0 -10 5 -19 10 -19 6 0 15 -10 21
-22 5 -13 30 -59 54 -103 24 -44 63 -118 86 -165 24 -47 46 -87 49 -90 4 -3
10 -22 14 -42 4 -21 11 -38 16 -38 6 0 10 -8 10 -18 0 -10 7 -27 15 -38 8 -10
15 -25 15 -32 0 -8 6 -28 13 -45 18 -42 36 -93 49 -137 5 -19 14 -39 19 -45 5
-5 9 -20 9 -35 0 -14 7 -34 15 -44 8 -11 15 -36 15 -55 0 -39 28 -121 41 -121
15 0 10 63 -6 84 -8 11 -15 35 -15 54 0 18 -7 40 -15 48 -8 9 -15 33 -15 54 0
21 -4 42 -10 45 -5 3 -10 16 -10 29 0 12 -7 31 -15 42 -8 10 -15 26 -15 34 0
8 -7 28 -15 44 -8 15 -15 36 -15 45 0 10 -7 26 -15 37 -8 10 -15 29 -15 42 0
12 -7 25 -15 28 -8 4 -15 17 -15 30 0 14 -7 27 -15 30 -8 4 -15 13 -15 22 0
19 -38 100 -51 108 -5 3 -9 13 -9 24 0 10 -7 20 -15 24 -8 3 -15 16 -15 30 0
14 -4 28 -10 31 -5 3 -20 27 -33 53 -34 70 -78 142 -87 142 -4 0 -11 12 -14
26 -4 14 -17 35 -30 47 -12 12 -25 30 -29 40 -3 9 -11 17 -17 17 -5 0 -10 11
-10 25 0 14 -4 25 -9 25 -4 0 -20 17 -34 38 -14 20 -39 53 -57 72 -69 76 -77
86 -96 114 -31 49 -110 126 -128 126 -9 0 -16 -2 -16 -4z"/>
<path d="M7967 10422 c-37 -8 -3 -22 52 -22 35 0 65 -6 77 -15 10 -8 40 -15
65 -15 29 0 51 -6 59 -15 7 -8 29 -15 49 -15 21 0 46 -7 57 -15 10 -8 28 -15
40 -15 11 0 29 -7 40 -15 10 -8 30 -15 44 -15 14 0 34 -7 44 -15 22 -17 76
-20 76 -5 0 5 -12 13 -27 16 -16 4 -32 10 -38 14 -5 4 -27 10 -47 14 -21 4
-38 11 -38 16 0 6 -10 10 -22 10 -13 0 -36 7 -52 15 -15 8 -43 15 -61 15 -18
0 -38 7 -45 15 -8 9 -30 15 -59 15 -26 0 -55 6 -66 14 -20 13 -114 25 -148 18z"/>
<path d="M9874 10373 c-10 -7 -26 -13 -36 -13 -10 0 -18 -4 -18 -10 0 -5 -9
-10 -19 -10 -11 0 -26 -7 -35 -15 -8 -8 -19 -15 -25 -15 -14 0 -95 -42 -99
-52 -2 -4 -14 -8 -27 -8 -12 0 -28 -7 -35 -15 -7 -8 -19 -15 -28 -15 -8 0 -37
-13 -64 -30 -55 -34 -61 -35 -78 -15 -17 21 -30 9 -30 -27 0 -24 11 -42 51
-80 l51 -49 24 22 c13 12 24 30 24 39 0 9 9 25 20 35 20 18 22 18 85 -45 38
-38 65 -73 65 -85 0 -25 -33 -55 -60 -55 -38 0 -24 -47 29 -101 64 -65 85 -63
89 8 2 29 9 56 17 63 8 7 15 20 15 30 0 10 7 23 15 30 8 7 15 20 15 30 0 10 7
23 15 30 8 7 15 20 15 29 0 8 13 43 29 76 16 33 32 67 35 75 3 8 10 22 14 30
41 72 41 83 -2 124 -30 28 -37 30 -52 19z m-54 -152 c0 -10 -7 -24 -15 -31 -8
-7 -15 -20 -15 -30 0 -10 -7 -23 -15 -30 -8 -7 -15 -20 -15 -30 0 -32 -13 -29
-52 10 -43 42 -47 73 -11 78 12 2 27 10 33 18 7 8 20 14 30 14 10 0 23 7 30
15 15 18 30 11 30 -14z"/>
<path d="M5233 10303 c-6 -2 -41 -33 -78 -69 -81 -79 -82 -97 -8 -104 51 -5
55 -7 173 -124 112 -110 120 -121 120 -156 0 -33 19 -70 37 -70 6 0 283 281
283 287 0 11 -44 59 -68 75 -43 28 -68 23 -76 -14 -4 -22 -1 -37 11 -50 16
-18 14 -21 -32 -68 -27 -28 -52 -50 -55 -50 -3 0 -40 33 -82 73 -41 39 -100
95 -130 122 -66 61 -73 72 -58 90 22 26 -6 69 -37 58z"/>
<path d="M6593 10243 c-24 -9 -13 -24 15 -21 15 2 26 8 25 13 -2 12 -23 16
-40 8z"/>
<path d="M8577 10243 c-3 -5 18 -20 46 -33 29 -13 56 -30 60 -37 4 -7 16 -13
27 -13 20 0 75 -27 98 -47 7 -7 20 -13 28 -13 8 0 14 -4 14 -10 0 -5 12 -10
26 -10 14 0 23 4 19 10 -3 6 -15 10 -26 10 -10 0 -19 7 -19 15 0 8 -9 15 -19
15 -11 0 -22 4 -26 9 -3 6 -18 16 -33 24 -90 46 -118 62 -122 69 -9 12 -67 21
-73 11z"/>
<path d="M6492 10196 c-23 -12 -39 -25 -35 -29 3 -4 -3 -7 -13 -7 -11 0 -29
-7 -40 -15 -10 -8 -24 -15 -31 -15 -7 0 -25 -12 -40 -26 -15 -14 -39 -31 -53
-37 l-25 -11 25 -4 c13 -2 26 1 28 6 2 6 23 20 48 32 24 12 44 28 44 36 0 8 8
14 18 14 19 0 83 28 92 40 3 4 18 10 34 14 23 6 27 9 15 17 -18 11 -16 12 -67
-15z"/>
<path d="M7270 10145 c-9 -11 -33 -15 -85 -15 -52 0 -76 -4 -85 -15 -7 -8 -27
-15 -45 -15 -18 0 -38 -7 -45 -15 -7 -9 -29 -15 -55 -15 -26 0 -48 -6 -55 -15
-7 -8 -27 -15 -45 -15 -18 0 -38 -7 -45 -15 -7 -8 -20 -15 -30 -15 -10 0 -23
-6 -30 -14 -6 -8 -17 -13 -24 -10 -7 3 -19 -2 -26 -11 -7 -8 -20 -15 -29 -15
-9 -1 -34 -12 -56 -25 -22 -14 -49 -29 -60 -34 -11 -5 -33 -21 -48 -35 -15
-14 -37 -26 -48 -26 -11 0 -22 -7 -25 -15 -4 -8 -15 -15 -26 -15 -11 0 -39
-20 -64 -45 -24 -25 -50 -45 -59 -45 -18 0 -375 -355 -375 -373 0 -7 -20 -34
-45 -60 -25 -27 -45 -52 -45 -57 0 -5 -20 -38 -45 -74 -25 -37 -45 -72 -45
-80 0 -7 -7 -19 -15 -26 -26 -21 -18 -47 16 -54 49 -10 141 -7 179 5 19 6 88
15 153 18 67 4 123 13 129 19 7 7 41 12 79 12 47 0 70 4 79 15 7 8 25 15 40
15 15 0 33 7 40 15 7 8 23 15 35 15 12 0 28 7 35 15 7 8 23 15 35 15 12 0 28
7 35 15 7 8 23 15 35 15 12 0 28 7 35 15 7 8 27 15 45 15 20 0 35 6 39 15 3 8
15 15 26 15 29 0 36 26 16 66 -20 43 -20 80 -1 118 8 15 15 36 15 46 0 10 7
23 15 30 8 7 15 19 15 27 0 8 14 32 30 53 17 21 30 41 30 44 0 3 108 115 241
248 224 225 264 271 252 291 -8 13 -80 7 -93 -8z"/>
<path d="M7489 10158 c-1 -2 -3 -28 -5 -58 -3 -30 -9 -56 -14 -58 -6 -2 -10
-16 -10 -30 0 -15 -7 -40 -15 -56 -8 -15 -15 -38 -15 -51 0 -12 -9 -30 -20
-40 -11 -10 -20 -23 -20 -28 0 -6 -11 -25 -25 -43 -14 -18 -25 -38 -25 -44 0
-7 -20 -33 -45 -58 -25 -25 -45 -52 -45 -61 -1 -9 -14 -27 -30 -41 -17 -13
-30 -32 -30 -41 0 -9 -7 -22 -15 -29 -15 -12 -20 -55 -10 -82 4 -10 34 -12
138 -10 112 3 135 1 146 -12 17 -20 41 -20 67 -1 10 8 30 15 42 15 13 0 36 6
50 13 15 8 42 21 60 30 19 9 39 17 47 17 7 0 18 7 25 15 9 10 32 15 75 15 43
0 66 -5 75 -15 14 -17 56 -20 65 -4 4 5 18 14 31 19 13 5 24 18 24 28 0 10 14
31 30 47 17 16 30 37 30 46 0 10 4 20 9 24 6 3 13 27 16 53 3 26 11 55 16 66
6 10 13 83 16 161 l6 144 -34 20 c-23 14 -51 21 -85 21 -34 0 -56 5 -64 15
-10 13 -50 15 -236 15 -123 0 -224 -1 -225 -2z"/>
<path d="M4743 10120 c-3 -11 -9 -20 -13 -20 -5 0 -12 -10 -16 -22 -3 -12 -10
-26 -15 -32 -41 -49 -49 -60 -49 -68 0 -5 -13 -23 -30 -41 -16 -18 -30 -40
-30 -49 0 -10 -4 -18 -9 -18 -5 0 -13 -10 -16 -22 -4 -13 -18 -37 -31 -55 -24
-32 -32 -73 -14 -73 6 0 10 6 10 14 0 7 7 19 15 26 8 7 15 20 15 30 0 10 7 20
15 24 8 3 15 14 15 25 0 11 6 24 13 28 7 4 21 27 32 50 11 24 23 43 27 43 3 0
17 17 29 38 13 20 25 39 28 42 18 15 51 71 51 85 0 22 -21 18 -27 -5z"/>
<path d="M8900 10062 c0 -4 17 -16 37 -27 21 -11 45 -27 55 -35 35 -31 47 -40
57 -40 5 0 11 -7 15 -15 3 -8 10 -15 15 -15 5 0 27 -16 48 -36 47 -43 70 -57
77 -45 3 5 -6 16 -19 25 -14 9 -38 29 -53 45 -15 15 -44 37 -64 50 -21 12 -38
27 -38 32 0 5 -8 9 -19 9 -10 0 -24 7 -31 15 -7 8 -19 15 -26 15 -8 0 -14 7
-14 15 0 8 -9 15 -20 15 -11 0 -20 -3 -20 -8z"/>
<path d="M6194 10010 c-16 -16 -35 -30 -41 -30 -7 0 -13 -4 -13 -9 0 -5 -10
-13 -22 -17 -13 -4 -47 -31 -77 -60 -30 -30 -58 -54 -63 -54 -4 0 -8 -7 -8
-16 0 -9 5 -14 11 -12 6 2 10 7 9 12 -1 5 12 15 28 22 16 6 47 29 69 50 60 57
104 94 114 94 4 0 20 11 35 25 24 22 25 25 7 25 -11 0 -33 -13 -49 -30z"/>
<path d="M8310 10031 c0 -6 5 -13 10 -16 6 -3 10 -23 10 -44 0 -20 7 -46 15
-57 8 -11 15 -41 15 -70 0 -28 6 -59 15 -70 19 -25 20 -124 0 -150 -8 -11 -15
-41 -15 -70 0 -33 -5 -56 -15 -64 -8 -7 -15 -23 -15 -35 0 -12 -7 -28 -15 -35
-8 -7 -15 -21 -15 -32 0 -25 -68 -122 -142 -202 -32 -35 -58 -68 -58 -74 0
-23 42 -32 157 -32 89 0 124 4 139 15 25 19 163 21 165 3 3 -36 -4 -73 -17
-85 -8 -8 -14 -19 -14 -24 0 -36 -159 -221 -202 -235 -16 -5 -17 -7 -2 -30 9
-13 24 -24 33 -24 9 0 34 -17 54 -38 35 -36 37 -41 37 -103 0 -42 -5 -72 -15
-85 -16 -22 -20 -94 -5 -94 6 0 15 -11 20 -24 5 -14 38 -55 73 -93 35 -37 67
-77 71 -89 9 -28 356 -376 392 -393 16 -7 42 -19 57 -27 16 -8 37 -14 46 -14
10 0 41 -23 70 -51 50 -50 51 -53 51 -110 0 -38 -5 -63 -15 -73 -9 -9 -15 -33
-15 -63 0 -28 -6 -58 -15 -69 -8 -10 -15 -40 -15 -65 0 -29 -6 -51 -15 -59
-12 -10 -15 -38 -15 -134 0 -115 -1 -124 -23 -144 -17 -16 -36 -22 -68 -22
-24 -1 -55 -7 -69 -15 -16 -9 -54 -14 -102 -15 -71 0 -78 -2 -97 -26 -12 -15
-21 -31 -21 -36 0 -6 -10 -21 -22 -34 -19 -20 -33 -24 -84 -24 -43 0 -65 5
-74 15 -7 9 -29 15 -55 15 -26 0 -48 6 -55 15 -7 8 -25 15 -41 15 -15 0 -48
14 -72 30 -25 17 -54 30 -65 30 -11 0 -25 7 -32 15 -7 8 -29 15 -49 15 -21 0
-46 7 -57 15 -11 8 -41 15 -70 15 -37 0 -54 4 -58 15 -3 9 -18 15 -39 15 -19
0 -40 7 -47 15 -8 9 -30 15 -59 15 -26 0 -52 5 -58 11 -14 14 -119 15 -136 1
-7 -5 -56 -12 -109 -14 -58 -2 -103 -9 -110 -16 -8 -8 -55 -12 -149 -12 -123
0 -139 -2 -163 -21 -14 -11 -26 -27 -26 -34 0 -7 -6 -20 -14 -27 -18 -19 -46
-74 -46 -91 0 -8 -7 -20 -15 -27 -8 -7 -15 -20 -15 -30 0 -10 -7 -23 -15 -30
-8 -7 -15 -23 -15 -35 0 -13 -7 -25 -15 -29 -9 -3 -15 -18 -15 -39 0 -19 -7
-40 -15 -47 -8 -7 -15 -27 -15 -45 0 -18 -7 -38 -15 -45 -8 -7 -15 -20 -15
-30 0 -10 -7 -23 -15 -30 -8 -7 -15 -27 -15 -45 0 -18 -7 -38 -15 -45 -8 -7
-15 -27 -15 -45 0 -20 -6 -35 -15 -39 -8 -3 -15 -14 -15 -25 0 -10 -7 -32 -15
-47 -8 -16 -15 -37 -15 -47 0 -10 -7 -25 -16 -34 -8 -9 -13 -22 -10 -30 3 -8
6 -21 6 -29 0 -8 10 -14 23 -14 12 0 34 -6 49 -14 15 -8 40 -17 57 -21 17 -4
33 -11 36 -16 4 -5 21 -9 40 -9 18 0 40 -7 49 -15 8 -9 33 -15 59 -15 27 0 49
-6 57 -15 8 -10 31 -15 69 -15 35 0 65 -6 77 -15 28 -21 600 -21 628 0 12 9
43 15 80 15 38 1 68 6 80 15 11 8 36 15 56 15 20 0 45 7 56 15 10 8 34 15 52
15 18 0 40 7 48 15 9 8 26 15 40 15 13 0 32 4 42 10 32 17 153 70 162 70 17 0
107 50 125 70 10 11 26 20 35 20 10 0 23 7 30 15 7 8 20 15 29 15 10 0 30 13
46 30 16 16 34 30 41 30 7 0 28 14 46 31 18 17 59 51 92 75 70 53 296 279 296
296 0 7 21 35 45 61 25 26 45 53 45 60 0 7 14 26 30 42 17 16 30 34 30 41 0 7
16 36 36 65 20 30 43 68 50 84 8 17 18 37 23 45 5 8 17 33 26 55 10 22 21 47
25 55 4 9 11 30 15 48 3 18 10 32 14 32 5 0 11 19 14 42 3 24 11 44 16 46 6 2
11 18 11 37 0 18 7 38 15 45 9 8 15 30 15 60 0 30 6 52 15 60 10 9 15 32 15
75 0 43 5 66 15 75 22 18 22 615 0 644 -9 12 -15 42 -15 77 0 38 -5 61 -15 69
-9 8 -15 30 -15 60 0 33 -5 50 -15 54 -9 3 -15 18 -15 40 0 18 -7 47 -15 62
-8 16 -15 36 -15 45 0 9 -7 22 -15 29 -8 7 -15 23 -15 36 0 12 -4 26 -10 29
-5 3 -10 14 -10 23 0 9 -14 44 -30 77 -16 33 -30 65 -30 71 0 6 -7 17 -15 24
-8 7 -15 20 -15 29 0 10 -13 30 -30 46 -16 16 -30 37 -30 46 0 10 -6 22 -12
26 -7 4 -22 24 -32 43 -11 19 -37 53 -58 75 -21 22 -41 49 -45 60 -8 26 -328
345 -346 345 -8 0 -27 13 -43 30 -16 16 -36 30 -45 30 -9 0 -29 13 -45 30 -16
16 -36 30 -45 30 -9 0 -29 13 -45 30 -16 16 -36 30 -45 30 -9 0 -22 7 -29 15
-7 8 -17 15 -23 15 -15 0 -96 40 -102 50 -3 5 -12 7 -19 4 -7 -3 -19 2 -26 11
-7 8 -20 15 -29 15 -10 0 -26 7 -37 15 -21 16 -74 20 -74 6z"/>
<path d="M9210 9832 c0 -12 40 -44 51 -40 6 2 1 13 -11 26 -21 22 -40 29 -40
14z"/>
<path d="M5927 9792 c-10 -10 -17 -24 -17 -30 0 -7 -7 -12 -15 -12 -8 0 -15
-7 -15 -15 0 -8 2 -15 5 -15 7 0 74 74 75 83 0 13 -16 7 -33 -11z"/>
<path d="M9275 9770 c3 -5 8 -10 11 -10 2 0 4 5 4 10 0 6 -5 10 -11 10 -5 0
-7 -4 -4 -10z"/>
<path d="M9300 9749 c0 -11 60 -69 71 -69 4 0 5 8 2 18 -5 19 -73 67 -73 51z"/>
<path d="M4485 9705 c-4 -11 -11 -27 -16 -35 -5 -8 -13 -25 -18 -37 -6 -11
-15 -24 -20 -28 -6 -3 -11 -17 -11 -31 0 -14 -7 -27 -15 -30 -8 -4 -15 -16
-15 -29 0 -13 -7 -25 -15 -29 -8 -3 -15 -16 -15 -29 0 -14 -7 -30 -15 -37 -8
-7 -15 -22 -15 -34 0 -11 -7 -30 -15 -40 -8 -11 -15 -29 -15 -40 0 -12 -7 -30
-15 -40 -8 -11 -15 -30 -15 -42 0 -13 -4 -25 -9 -28 -4 -3 -11 -24 -15 -46 -3
-22 -10 -40 -14 -40 -7 0 -17 -32 -42 -150 -6 -24 -15 -49 -20 -54 -12 -12
-14 -66 -2 -66 13 1 42 76 42 109 0 18 7 39 15 47 8 9 15 28 15 44 0 15 7 41
15 56 8 16 15 38 15 50 0 11 7 29 15 40 8 10 15 29 15 42 0 13 7 30 15 38 8 9
15 25 15 37 0 12 14 49 30 82 16 33 30 70 30 83 0 12 4 22 10 22 8 0 50 79 50
95 0 4 7 13 15 22 8 8 12 19 9 25 -3 5 3 18 15 29 23 22 25 28 11 49 -7 12
-10 11 -15 -5z"/>
<path d="M5835 9700 c-10 -11 -15 -23 -12 -27 8 -7 47 25 47 39 0 14 -16 9
-35 -12z"/>
<path d="M9380 9662 c0 -4 13 -19 28 -32 15 -14 31 -34 35 -44 6 -14 11 -16
19 -8 8 8 0 22 -28 51 -37 39 -54 50 -54 33z"/>
<path d="M5787 9643 c-9 -10 -37 -39 -62 -66 -25 -26 -45 -51 -45 -56 0 -5
-12 -22 -28 -38 -35 -36 -62 -78 -62 -98 0 -8 -5 -15 -11 -15 -13 0 -48 -41
-49 -57 0 -7 -11 -24 -24 -38 -13 -14 -27 -38 -31 -53 -4 -15 -10 -29 -13 -32
-4 -3 -18 -27 -31 -55 -13 -27 -31 -63 -39 -80 -9 -16 -18 -37 -22 -45 -4 -8
-14 -30 -23 -48 -9 -19 -17 -45 -17 -58 0 -14 -7 -27 -15 -30 -8 -4 -15 -16
-15 -28 -1 -52 23 -50 -565 -51 -436 0 -548 2 -552 12 -6 16 -35 17 -51 1 -10
-10 -113 -12 -448 -10 -286 1 -442 -2 -455 -8 -16 -9 -17 -15 -8 -31 6 -11 8
-27 5 -34 -2 -7 2 -19 10 -25 8 -7 14 -25 14 -40 0 -15 7 -33 15 -40 8 -7 15
-23 15 -35 0 -12 7 -28 15 -35 8 -7 15 -20 15 -29 0 -10 7 -26 15 -37 8 -10
15 -28 15 -39 0 -11 7 -29 15 -39 8 -11 15 -30 15 -42 0 -12 7 -27 15 -34 8
-7 15 -23 15 -36 0 -13 4 -24 9 -24 5 0 12 -12 15 -27 4 -16 13 -41 21 -58 38
-82 45 -107 45 -158 0 -36 -5 -59 -15 -67 -8 -7 -15 -21 -15 -32 0 -11 -6 -32
-13 -46 -8 -15 -21 -42 -30 -60 -9 -19 -17 -42 -17 -52 0 -9 -7 -23 -15 -30
-8 -7 -15 -23 -15 -35 0 -12 -6 -28 -14 -34 -8 -6 -16 -24 -19 -39 -5 -28 -21
-75 -43 -127 -29 -69 -42 -103 -59 -150 -10 -27 -22 -55 -27 -61 -5 -7 -3 -14
6 -17 8 -3 219 -6 468 -7 506 0 478 4 478 -71 0 -24 5 -39 15 -43 10 -3 15
-20 15 -48 0 -24 7 -52 15 -62 8 -11 15 -31 15 -45 1 -14 7 -37 15 -51 8 -14
14 -35 15 -48 0 -22 2 -28 33 -90 9 -19 17 -41 17 -51 0 -9 7 -26 15 -37 8
-10 15 -25 15 -31 0 -21 43 -113 52 -113 4 0 8 -14 8 -30 0 -18 6 -33 15 -36
8 -4 15 -16 15 -29 0 -13 7 -25 15 -29 8 -3 15 -14 15 -25 0 -11 5 -23 11 -26
5 -4 14 -17 20 -28 5 -12 14 -31 21 -42 6 -11 15 -27 20 -35 5 -8 11 -23 14
-32 4 -10 10 -18 14 -18 5 0 11 -14 15 -30 4 -16 10 -30 15 -30 5 0 12 -10 16
-22 3 -12 13 -28 20 -36 8 -7 42 -56 76 -108 33 -52 65 -94 69 -94 5 0 9 -8 9
-17 0 -10 28 -48 63 -84 73 -78 95 -103 124 -144 49 -68 184 -200 328 -320 26
-22 62 -53 79 -70 17 -16 41 -34 53 -40 11 -5 38 -25 59 -42 83 -70 156 -124
177 -134 12 -5 36 -18 52 -28 17 -11 47 -29 67 -40 73 -40 84 -46 119 -73 20
-16 46 -28 57 -28 11 0 25 -7 32 -15 7 -8 18 -15 25 -15 7 0 18 -7 25 -15 7
-8 23 -15 36 -15 12 0 25 -4 28 -9 8 -13 84 -51 101 -51 7 0 43 -14 78 -30 36
-17 72 -30 81 -30 8 0 18 -4 21 -10 3 -6 17 -10 29 -10 13 0 29 -7 36 -15 8
-9 29 -15 55 -15 27 0 45 -5 48 -14 3 -8 28 -16 61 -20 31 -4 58 -12 61 -17 4
-5 21 -9 39 -9 18 0 41 -7 52 -15 22 -17 139 -21 129 -5 -3 6 -29 10 -56 10
-32 0 -56 6 -65 15 -9 9 -34 15 -59 15 -29 0 -45 5 -49 15 -3 9 -19 15 -41 15
-20 0 -65 14 -100 30 -35 17 -73 30 -83 30 -11 0 -25 7 -32 15 -7 8 -23 15
-35 15 -13 0 -36 6 -52 14 -52 27 -101 46 -117 46 -9 0 -16 4 -16 9 0 5 -15
13 -32 16 -18 4 -35 10 -38 14 -3 3 -22 14 -43 23 -91 42 -114 54 -151 80 -21
16 -45 28 -53 28 -7 0 -16 7 -19 15 -4 8 -15 15 -26 15 -12 0 -26 6 -32 14 -6
8 -38 28 -71 46 -54 30 -183 120 -216 152 -8 7 -32 25 -54 39 -22 15 -63 50
-92 78 -28 28 -57 51 -63 51 -7 0 -40 28 -74 63 -33 34 -76 73 -93 87 -18 14
-33 28 -33 33 0 4 -24 31 -54 60 -29 28 -84 90 -122 136 -37 47 -75 92 -84
101 -9 9 -35 44 -59 78 -24 34 -48 62 -52 62 -5 0 -9 9 -9 20 0 10 -6 23 -12
27 -15 9 -33 37 -48 71 -5 12 -13 22 -17 22 -5 0 -17 20 -28 45 -10 24 -25 47
-32 49 -7 3 -13 14 -13 25 0 11 -5 23 -11 26 -5 4 -14 17 -20 28 -5 12 -14 31
-21 42 -23 40 -28 50 -34 65 -14 34 -69 145 -75 150 -4 3 -10 20 -14 38 -3 17
-11 32 -16 32 -5 0 -9 11 -9 24 0 13 -7 29 -15 36 -8 7 -15 26 -15 42 0 16 -6
31 -15 34 -8 4 -15 18 -15 33 0 14 -7 39 -15 55 -8 15 -15 41 -15 56 0 15 -7
33 -15 40 -8 7 -15 27 -15 44 0 17 -7 40 -15 50 -8 11 -15 36 -15 55 0 20 -7
45 -15 55 -15 20 -19 53 -10 78 4 11 105 13 553 11 l547 -1 10 -29 c5 -15 13
-30 17 -33 3 -3 10 -19 14 -35 4 -17 10 -34 14 -40 4 -5 11 -25 15 -42 3 -18
10 -33 15 -33 4 0 11 -11 14 -25 4 -14 11 -25 17 -25 13 0 2 53 -12 58 -5 2
-9 16 -9 32 0 16 -7 35 -15 44 -8 8 -15 23 -15 33 -1 10 -7 29 -15 43 -8 14
-14 35 -15 46 0 12 -7 27 -15 34 -8 7 -15 29 -15 49 0 21 -7 46 -15 57 -8 10
-15 38 -15 60 0 23 -7 55 -15 70 -8 16 -15 52 -15 80 0 27 -6 56 -12 62 -10
10 -14 91 -16 319 -3 257 -1 313 12 354 9 26 16 67 16 91 0 25 7 53 15 64 8
10 15 35 15 55 0 20 7 56 15 79 8 23 15 58 15 77 0 21 6 36 15 39 9 4 15 19
15 38 0 17 7 40 15 50 8 11 15 28 15 39 0 10 7 25 15 33 8 9 15 28 15 44 0 16
7 30 15 34 8 3 15 13 15 23 0 10 7 27 15 37 8 11 15 26 15 34 0 7 7 20 15 28
8 9 15 24 15 35 0 10 5 19 10 19 6 0 10 9 10 19 0 11 6 26 13 33 7 7 31 42 52
78 22 36 50 76 62 90 13 14 23 33 23 42 0 10 27 45 60 78 33 33 60 63 60 66 0
3 6 12 13 19 32 36 38 46 35 56 -2 5 -11 2 -21 -8z m-517 -888 c5 -3 0 -30
-11 -60 -10 -30 -19 -67 -19 -82 0 -16 -7 -37 -15 -47 -9 -12 -15 -42 -15 -72
0 -28 -6 -67 -14 -85 -12 -31 -29 -238 -28 -349 2 -170 15 -359 28 -387 8 -17
14 -55 14 -85 1 -29 7 -64 15 -78 8 -14 14 -44 15 -66 0 -25 6 -47 15 -54 11
-9 15 -26 13 -52 l-3 -39 -1005 0 -1005 0 -3 20 c-2 12 4 28 12 37 9 8 16 29
16 45 0 16 5 29 10 29 6 0 10 6 10 13 1 6 9 30 20 52 11 22 19 48 20 57 0 9 4
19 9 23 5 3 13 19 16 37 4 17 18 51 31 76 13 25 24 52 24 62 0 9 7 25 15 36 8
10 15 29 15 42 0 12 7 25 15 28 8 4 15 18 15 33 0 14 7 35 15 45 8 11 15 28
15 38 0 10 5 27 12 37 9 15 9 25 0 46 -7 14 -12 35 -12 46 0 11 -7 22 -15 25
-8 4 -15 18 -15 33 0 14 -7 35 -15 45 -8 11 -15 27 -15 37 0 9 -7 22 -15 29
-8 7 -15 23 -15 36 0 14 -4 32 -10 42 -14 25 -37 83 -46 112 -3 14 -10 27 -14
30 -7 5 -37 87 -47 128 -3 12 -9 22 -14 22 -5 0 -9 8 -9 18 0 9 -9 34 -20 55
-20 37 -20 38 -1 45 22 8 1998 5 2011 -3z"/>
<path d="M3807 8284 c-4 -4 -7 -92 -7 -194 0 -149 3 -190 14 -199 15 -13 146
-13 166 -1 7 4 10 16 8 26 -2 15 -15 20 -63 24 l-60 5 0 55 0 55 45 5 c37 4
46 9 48 27 3 23 -8 28 -68 35 -23 3 -25 7 -25 53 l0 50 60 5 c56 5 60 7 60 30
0 24 -2 25 -85 28 -47 1 -89 0 -93 -4z"/>
<path d="M4093 8271 c-20 -17 -23 -29 -23 -95 0 -89 17 -116 75 -116 31 0 35
-4 44 -36 10 -36 -2 -84 -21 -84 -16 0 -48 40 -48 61 0 15 -5 20 -22 17 -20
-3 -23 -10 -26 -49 -4 -60 19 -82 91 -85 58 -3 65 0 90 36 25 36 24 158 0 166
-10 3 -30 12 -45 20 -14 8 -38 14 -52 14 -23 0 -26 4 -26 38 0 25 7 45 18 55
26 24 29 22 52 -23 16 -30 26 -40 45 -40 23 0 25 4 25 43 0 63 -38 97 -106 97
-33 -1 -56 -7 -71 -19z"/>
<path d="M4334 8275 c-10 -25 4 -45 31 -45 l25 0 0 -169 c0 -104 4 -172 10
-176 6 -3 19 -3 30 0 19 6 20 15 20 159 0 146 1 153 23 174 13 12 31 22 41 22
12 0 16 6 14 23 -3 21 -8 22 -96 25 -76 2 -93 0 -98 -13z"/>
<path d="M4597 8283 c-4 -3 -7 -93 -7 -199 0 -220 -8 -205 98 -200 40 2 67 8
72 16 5 8 14 52 20 98 14 97 2 227 -24 267 -15 23 -23 25 -85 25 -37 0 -71 -3
-74 -7z m108 -198 l0 -140 -25 0 -25 0 -3 143 -3 143 28 -3 28 -3 0 -140z"/>
<path d="M9470 9556 c0 -7 20 -35 45 -62 25 -26 45 -54 45 -61 0 -8 14 -27 30
-43 17 -16 30 -36 30 -43 0 -8 7 -20 15 -27 8 -7 15 -19 15 -26 0 -8 5 -14 10
-14 6 0 10 -6 10 -14 0 -8 6 -21 13 -28 12 -12 37 -57 77 -136 9 -18 19 -29
23 -26 12 12 8 41 -8 54 -8 7 -15 19 -15 26 0 8 -20 43 -45 80 -25 36 -45 70
-45 76 0 5 -13 27 -30 48 -16 21 -30 42 -30 46 0 5 -14 24 -30 43 -17 18 -30
37 -30 41 0 11 -62 80 -72 80 -4 0 -8 -6 -8 -14z"/>
<path d="M8203 9492 c-13 -14 -23 -30 -23 -36 0 -18 -64 -86 -80 -86 -22 0
-90 -66 -90 -88 0 -10 9 -27 20 -37 20 -18 22 -18 74 34 30 29 66 79 81 110
14 31 33 69 41 85 20 39 5 50 -23 18z"/>
<path d="M7310 9213 c-1 -51 -59 -157 -89 -161 -30 -5 -21 -26 12 -30 20 -3
38 6 67 34 22 21 40 43 40 50 0 6 6 24 14 39 13 25 12 31 -6 66 -25 49 -38 49
-38 2z"/>
<path d="M9797 9064 c-13 -13 -7 -65 8 -70 8 -4 15 -16 15 -29 0 -12 7 -28 15
-35 8 -7 15 -23 15 -36 0 -23 23 -54 41 -54 5 0 9 7 9 15 0 8 -4 15 -10 15 -5
0 -10 11 -10 24 0 13 -7 29 -15 36 -8 7 -15 20 -15 29 -1 25 -45 113 -53 105z"/>
<path d="M9885 8820 c-12 -19 5 -70 24 -70 10 0 20 2 23 5 3 3 459 5 1014 5
555 -1 1017 -2 1028 -1 28 0 33 11 13 26 -14 10 -110 13 -460 13 -351 -1 -448
2 -470 13 -25 11 -30 11 -37 -2 -7 -12 -79 -14 -527 -13 -286 0 -526 -3 -536
-8 -13 -7 -23 -2 -41 17 -15 16 -27 22 -31 15z"/>
<path d="M6460 8745 c-7 -8 -20 -15 -29 -15 -10 0 -26 -7 -37 -15 -13 -10 -45
-14 -100 -15 -60 0 -85 -4 -94 -15 -7 -8 -20 -15 -30 -15 -10 0 -23 -7 -30
-15 -9 -11 -33 -15 -86 -15 -67 0 -78 -3 -121 -32 -65 -45 -83 -65 -83 -88 0
-15 -7 -20 -25 -20 -14 0 -28 -7 -31 -15 -4 -8 -15 -15 -27 -15 -34 0 -88 -65
-94 -112 -5 -48 -37 -117 -59 -125 -8 -3 -21 -17 -29 -32 -7 -14 -36 -48 -64
-76 l-50 -50 0 -180 c0 -138 3 -186 14 -205 8 -14 14 -52 15 -86 0 -46 4 -63
15 -68 9 -3 15 -18 15 -40 0 -18 7 -47 15 -62 8 -16 15 -45 15 -65 0 -24 5
-39 15 -43 8 -3 15 -14 15 -25 0 -10 7 -32 15 -47 8 -16 15 -36 15 -45 0 -9 7
-22 15 -29 8 -7 15 -18 15 -26 0 -7 11 -34 25 -60 14 -26 25 -51 25 -55 0 -5
20 -38 45 -75 25 -36 45 -69 45 -73 0 -13 76 -125 99 -146 12 -10 21 -24 21
-32 0 -19 314 -330 374 -371 l49 -34 34 35 c18 20 33 44 33 54 0 10 7 27 15
37 9 12 15 42 15 72 0 34 5 56 15 64 10 8 15 30 15 62 0 34 4 50 15 54 11 4
15 21 15 59 0 34 5 57 15 65 11 9 15 34 15 99 l0 87 45 44 c25 24 45 52 45 61
0 9 7 22 15 29 8 7 15 27 15 45 0 33 25 65 52 65 9 0 21 6 27 14 7 8 23 17 36
20 17 4 25 13 25 29 0 12 6 32 14 43 8 11 16 31 18 44 l3 25 207 3 c174 2 209
0 221 -13 12 -11 40 -15 121 -15 95 0 108 2 132 23 51 43 74 92 74 157 0 59
-2 63 -47 113 -27 29 -50 54 -54 57 -3 3 -15 21 -26 40 -12 19 -40 53 -62 75
-23 21 -41 45 -41 53 0 8 -60 75 -132 149 -73 74 -134 140 -136 147 -2 7 4 19
13 26 11 9 15 31 15 76 0 66 -9 83 -56 110 -10 6 -20 23 -22 37 -2 14 -10 31
-18 37 -8 7 -14 20 -14 29 0 21 -70 91 -92 91 -8 0 -21 7 -28 15 -9 10 -32 15
-75 15 -57 0 -64 2 -85 30 -13 17 -31 30 -40 30 -10 0 -23 7 -30 15 -7 8 -20
15 -30 15 -10 0 -23 7 -30 15 -8 9 -30 15 -60 15 -30 0 -52 -6 -60 -15z m-140
-282 c0 -7 18 -31 40 -53 68 -68 201 -114 216 -75 4 11 21 15 59 15 34 0 57
-5 65 -15 7 -8 20 -15 30 -15 10 0 23 -7 30 -15 19 -23 185 -21 198 1 14 25
32 7 32 -32 0 -22 -6 -37 -15 -40 -8 -4 -15 -15 -15 -26 0 -12 -11 -23 -30
-29 -16 -6 -30 -14 -30 -19 0 -14 -124 -22 -150 -10 -56 25 -79 42 -85 60 -8
25 -79 29 -89 5 -3 -9 -18 -15 -39 -15 -19 0 -40 7 -47 15 -7 8 -25 15 -41 15
-15 0 -34 6 -41 13 -46 46 -85 38 -159 -33 -52 -50 -65 -94 -34 -120 8 -7 15
-20 15 -30 0 -10 7 -23 15 -30 8 -7 15 -20 15 -30 0 -10 7 -23 15 -30 8 -7 15
-20 15 -30 0 -10 7 -23 15 -30 8 -7 15 -20 15 -30 0 -10 7 -23 15 -30 20 -17
19 -88 -1 -111 -12 -13 -16 -41 -17 -118 0 -84 2 -104 18 -121 10 -11 26 -20
35 -20 10 0 23 -7 30 -15 7 -8 20 -15 30 -15 10 0 23 -7 30 -15 6 -8 33 -15
61 -17 49 -3 68 -20 30 -26 -11 -2 -25 -10 -31 -18 -15 -17 -180 -21 -180 -4
0 6 -6 10 -14 10 -45 0 -126 109 -126 168 0 42 -30 91 -89 146 -33 32 -40 63
-16 72 19 8 22 88 3 82 -7 -3 -15 -13 -16 -24 -5 -26 -92 -114 -113 -114 -9 0
-22 -7 -29 -15 -23 -28 -76 -18 -115 20 -35 35 -35 36 -35 125 0 85 1 90 30
122 17 18 30 37 30 42 0 16 42 56 60 56 9 0 27 13 40 30 14 16 35 29 46 30 12
0 24 7 28 15 3 8 16 15 28 15 18 1 29 14 52 62 37 76 95 131 144 138 34 5 37
7 34 35 -4 55 -2 76 9 97 9 17 13 18 20 7 5 -8 9 -20 9 -26z m298 -367 c12
-13 22 -31 22 -39 0 -8 7 -20 15 -27 9 -7 15 -23 13 -34 -4 -27 -68 -35 -88
-12 -7 9 -27 16 -45 16 -27 0 -37 6 -54 34 -21 33 -27 67 -14 79 3 4 34 7 67
7 51 0 65 -4 84 -24z m786 -495 c18 -20 15 -41 -6 -41 -6 0 -19 -7 -29 -16
-27 -25 -59 -3 -59 41 0 34 1 35 38 35 26 0 45 -7 56 -19z"/>
<path d="M9910 8701 c0 -22 6 -44 15 -51 9 -7 15 -30 15 -54 0 -22 7 -50 15
-60 9 -12 15 -42 15 -76 0 -32 7 -71 16 -89 23 -47 23 -630 0 -686 -9 -21 -16
-56 -16 -79 -1 -22 -7 -52 -15 -66 -8 -14 -14 -52 -15 -86 0 -46 -4 -63 -15
-68 -16 -6 -21 -51 -6 -60 5 -3 12 10 15 29 4 19 11 35 16 35 6 0 10 17 10 38
0 20 7 50 15 66 8 15 15 49 15 75 0 26 5 52 11 58 6 6 15 73 19 149 5 77 14
173 21 214 9 58 9 84 0 115 -7 22 -15 99 -18 170 -3 79 -11 141 -19 157 -8 15
-14 45 -14 66 0 22 -7 56 -15 75 -8 20 -15 47 -15 59 0 27 -32 108 -42 108 -5
0 -8 -17 -8 -39z"/>
<path d="M11953 8728 c-6 -7 -16 -30 -22 -50 -7 -21 -16 -38 -21 -38 -4 0 -11
-20 -14 -45 -4 -25 -11 -45 -17 -45 -5 0 -9 -9 -9 -19 0 -11 -7 -26 -15 -35
-8 -8 -15 -23 -15 -33 0 -11 -7 -28 -15 -39 -8 -10 -15 -29 -15 -40 0 -12 -7
-27 -15 -34 -8 -7 -15 -25 -15 -40 0 -15 -7 -33 -15 -40 -8 -7 -15 -22 -15
-34 0 -11 -7 -30 -15 -40 -8 -11 -15 -29 -15 -39 0 -11 -7 -25 -16 -32 -26
-19 -23 -139 4 -190 12 -21 22 -45 22 -52 0 -13 4 -22 34 -80 9 -17 16 -38 16
-47 0 -9 4 -16 9 -16 5 0 12 -15 15 -34 6 -31 23 -75 47 -118 5 -10 9 -23 9
-30 0 -7 14 -40 30 -73 16 -33 30 -67 30 -75 0 -9 6 -24 13 -35 19 -28 27 -64
16 -71 -13 -8 -2005 -8 -2018 0 -23 14 -51 -14 -51 -50 0 -20 -7 -42 -15 -50
-19 -20 -21 -92 -2 -76 7 6 14 26 15 44 2 18 7 35 12 36 6 2 10 14 10 27 0 13
5 27 10 30 6 3 256 6 558 6 l547 1 3 -36 c2 -20 -4 -51 -12 -68 -9 -17 -16
-43 -16 -58 0 -15 -7 -33 -15 -40 -9 -7 -15 -29 -15 -52 0 -22 -7 -46 -15 -54
-8 -9 -15 -30 -15 -48 0 -19 -7 -39 -15 -46 -8 -7 -15 -23 -15 -37 0 -13 -7
-31 -15 -39 -8 -9 -15 -27 -15 -40 0 -14 -7 -32 -15 -40 -8 -9 -15 -26 -15
-40 0 -13 -4 -24 -10 -24 -5 0 -12 -17 -16 -37 -4 -21 -13 -44 -21 -51 -15
-16 -14 -42 2 -45 6 -1 12 9 13 23 2 14 10 29 18 33 8 4 14 21 14 37 0 17 4
30 8 30 9 0 52 98 52 120 0 8 7 24 15 34 8 11 15 32 15 47 0 15 5 29 11 31 5
2 13 24 16 48 3 25 9 47 13 50 9 7 40 104 40 127 0 10 7 31 15 47 8 15 15 43
15 61 0 67 -14 65 499 66 395 0 461 2 461 15 0 14 -3 22 -33 82 -9 19 -17 40
-17 48 0 8 -7 17 -15 20 -8 4 -15 18 -15 34 0 16 -6 41 -14 57 -26 51 -46 103
-46 117 0 8 -7 19 -15 26 -8 7 -15 25 -15 41 0 16 -4 29 -9 29 -5 0 -13 15
-16 33 -4 17 -14 41 -21 52 -8 11 -14 28 -14 38 0 10 -7 25 -15 33 -8 9 -15
26 -15 39 0 13 -4 26 -9 29 -5 4 -12 28 -16 55 -5 38 -2 58 14 94 12 25 21 51
21 56 0 6 5 11 10 11 6 0 10 10 10 23 0 12 7 35 15 51 8 15 15 34 15 41 0 7 7
18 15 25 8 7 15 25 15 40 0 15 7 33 15 40 8 7 15 25 15 40 0 16 7 30 15 34 9
3 15 18 15 40 0 21 6 36 15 40 8 3 15 14 15 25 0 17 15 52 42 101 18 33 20 42
11 51 -6 6 -13 5 -20 -3z"/>
<path d="M7862 8530 c-34 -4 -75 -13 -90 -20 -15 -6 -43 -19 -62 -28 -19 -9
-51 -32 -71 -52 l-36 -34 35 -38 c20 -21 44 -38 53 -38 9 0 22 -7 29 -15 20
-24 124 -20 166 6 30 18 34 25 34 65 0 33 8 54 32 88 26 38 29 48 18 61 -7 8
-20 14 -29 14 -9 -1 -44 -5 -79 -9z"/>
<path d="M10397 8273 c-14 -17 -20 -50 -18 -100 1 -33 51 -33 51 0 0 20 30 57
47 57 16 0 31 -38 26 -65 -7 -33 -45 -75 -69 -75 -7 0 -24 -10 -36 -22 -24
-24 -35 -119 -18 -162 9 -24 13 -25 92 -25 46 0 89 4 96 8 8 5 12 22 10 42 -3
31 -6 34 -39 37 -23 2 -40 -2 -49 -12 -16 -20 -49 -21 -56 -1 -10 26 6 65 30
75 13 5 27 14 31 19 3 6 14 11 24 11 10 0 27 10 39 23 30 32 31 125 1 173 -20
33 -23 34 -83 34 -47 0 -67 -4 -79 -17z"/>
<path d="M10681 8271 c-30 -30 -41 -85 -41 -201 1 -77 5 -110 15 -124 8 -11
15 -28 15 -38 0 -10 7 -18 18 -19 9 0 37 -2 61 -5 36 -3 49 0 68 18 22 21 23
27 23 185 0 150 -2 165 -20 183 -28 28 -112 28 -139 1z m99 -187 l0 -145 -27
3 -28 3 -3 129 c-1 72 0 136 2 143 3 7 17 13 31 13 l25 0 0 -146z"/>
<path d="M10953 8271 c-18 -15 -23 -30 -23 -71 0 -50 1 -51 27 -48 19 2 29 10
31 23 4 22 30 55 44 55 11 0 31 -49 30 -74 -1 -20 -48 -65 -68 -66 -6 0 -23
-9 -38 -21 -26 -20 -27 -25 -24 -103 l3 -81 95 0 95 0 3 43 3 42 -39 0 c-27 0
-42 -5 -46 -16 -3 -9 -15 -14 -28 -12 -20 3 -23 9 -23 43 0 32 4 40 20 43 11
3 24 10 28 18 4 8 17 14 27 14 40 0 60 35 60 104 0 36 -5 68 -11 71 -5 4 -14
18 -19 31 -9 22 -15 24 -67 24 -42 -1 -64 -6 -80 -19z"/>
<path d="M11221 8254 c-18 -30 -22 -56 -25 -159 -3 -92 0 -131 10 -151 8 -14
14 -32 14 -39 0 -8 12 -16 28 -19 37 -8 122 1 136 14 7 7 12 74 14 177 3 160
3 166 -19 189 -19 20 -32 24 -80 24 -55 0 -58 -1 -78 -36z m114 -169 c0 -128
-2 -140 -19 -143 -30 -6 -36 9 -37 108 -3 183 -3 182 29 178 l27 -3 0 -140z"/>
<path d="M8944 7576 c-3 -8 -4 -31 -2 -52 3 -33 8 -40 33 -49 17 -5 34 -14 38
-20 5 -5 6 4 2 20 -4 17 -9 49 -12 73 -4 36 -8 42 -29 42 -14 0 -27 -6 -30
-14z"/>
<path d="M9828 7114 c-5 -4 -8 -16 -8 -26 0 -10 -4 -18 -9 -18 -5 0 -13 -10
-16 -22 -11 -39 -44 -106 -55 -113 -5 -3 -10 -15 -10 -26 0 -10 -4 -19 -9 -19
-5 0 -12 -13 -16 -30 -4 -16 -10 -30 -15 -30 -4 0 -13 -13 -18 -29 -6 -16 -19
-38 -30 -49 -11 -11 -23 -29 -26 -40 -4 -10 -24 -39 -46 -63 -22 -24 -40 -51
-40 -59 -1 -8 -14 -26 -30 -40 -17 -13 -30 -29 -30 -35 0 -6 -12 -22 -27 -35
-26 -23 -26 -25 -8 -28 10 -3 21 1 23 8 2 6 17 25 33 41 16 16 29 34 29 39 0
5 12 22 28 38 36 37 62 78 62 97 0 8 6 15 14 15 7 0 16 8 20 18 8 24 29 56 44
65 6 4 12 19 12 32 0 14 4 25 9 25 5 0 19 19 32 43 59 112 79 153 79 168 0 8
5 20 11 26 6 6 9 21 7 33 -1 12 -6 18 -10 14z"/>
<path d="M3985 7053 c-4 -15 -10 -35 -15 -44 -4 -9 -11 -37 -15 -63 -4 -25
-11 -49 -16 -52 -5 -3 -9 -16 -9 -28 0 -25 41 -67 123 -125 47 -34 47 -35 47
-93 0 -32 -7 -75 -15 -95 -22 -52 -20 -94 5 -100 11 -3 20 -9 20 -14 0 -5 6
-9 13 -9 8 0 24 -9 37 -20 13 -11 29 -20 35 -20 7 0 27 -14 44 -32 29 -29 31
-38 30 -93 0 -33 -6 -74 -11 -91 -8 -23 -7 -37 6 -62 9 -18 24 -32 33 -32 9 0
37 -13 63 -29 26 -16 58 -31 71 -33 29 -4 37 -33 45 -160 6 -88 9 -98 28 -103
26 -8 62 -22 99 -41 16 -8 37 -14 47 -14 34 0 59 -50 61 -125 3 -94 25 -131
82 -140 23 -4 57 -13 75 -21 18 -8 37 -12 43 -8 20 12 57 -36 64 -84 4 -26 12
-53 17 -60 6 -7 12 -25 13 -40 3 -49 5 -52 28 -52 13 0 28 -5 34 -11 6 -6 44
-14 83 -17 78 -5 120 -30 120 -70 0 -11 5 -24 10 -27 6 -3 10 -13 10 -21 0 -8
10 -37 23 -64 l22 -50 106 0 c97 0 107 -2 127 -23 12 -13 22 -33 22 -45 0 -12
4 -22 10 -22 5 0 21 -25 35 -55 13 -30 28 -56 32 -57 5 0 56 -2 114 -3 87 -1
110 -5 132 -21 15 -10 27 -25 27 -32 0 -8 21 -41 46 -74 l46 -60 47 6 c25 3
77 8 114 11 l69 5 44 -46 c24 -26 44 -51 44 -56 0 -4 10 -19 22 -33 19 -22 30
-25 83 -25 38 0 68 5 81 15 10 8 40 15 66 15 40 0 53 -5 81 -32 19 -18 53 -50
76 -71 l42 -39 57 17 c31 9 69 23 84 31 58 31 122 5 220 -88 22 -22 84 -24 92
-3 3 8 15 15 26 15 11 0 20 4 20 10 0 5 12 13 28 16 15 4 29 11 32 15 4 5 19
11 36 15 24 4 36 0 64 -25 19 -17 44 -34 55 -37 10 -4 25 -12 32 -18 32 -29
43 -36 52 -36 5 0 49 27 98 60 48 33 93 60 100 60 14 0 95 -40 103 -51 3 -3
16 -10 30 -14 14 -4 33 -13 43 -20 24 -17 52 -8 72 21 8 13 22 24 30 24 8 0
18 6 22 13 13 22 92 57 127 57 18 0 39 -7 46 -15 7 -8 22 -15 34 -15 11 0 34
-7 50 -15 35 -19 66 -19 66 -2 0 8 11 20 25 27 14 7 25 19 25 27 0 7 6 13 13
13 7 0 26 14 42 30 24 25 37 30 75 30 25 0 50 -4 55 -9 12 -12 122 -30 144
-24 9 2 41 38 71 79 l55 76 124 -3 c121 -3 124 -3 142 21 11 14 23 30 27 35 4
6 23 33 42 60 18 28 35 52 36 54 2 2 58 3 124 2 l121 -2 12 31 c6 16 15 30 19
30 4 0 8 11 8 24 0 13 7 29 15 36 8 7 15 19 15 27 0 8 10 26 23 39 20 22 29
24 130 24 94 0 108 2 113 18 10 30 35 86 50 114 7 14 14 34 14 45 1 30 43 52
111 57 35 2 81 10 102 18 31 11 38 19 43 48 4 19 11 38 17 41 5 4 12 31 14 60
5 64 36 99 88 99 19 0 36 4 39 9 3 5 26 12 51 15 57 9 75 34 82 118 8 82 35
148 62 148 11 0 35 6 53 14 18 8 52 23 76 32 46 19 43 12 46 136 0 38 4 68 8
68 4 0 11 15 16 33 6 23 15 33 33 35 13 2 28 10 32 18 4 8 14 14 20 14 15 0
81 33 102 50 17 14 21 105 6 114 -5 3 -9 30 -10 58 -1 49 2 55 37 85 32 28 34
33 16 33 -12 0 -27 -7 -34 -15 -7 -8 -18 -15 -26 -15 -20 0 -25 -29 -19 -128
6 -99 -3 -132 -35 -132 -10 0 -23 -6 -27 -13 -4 -7 -32 -24 -60 -37 -69 -32
-83 -61 -83 -173 l0 -85 -43 -21 c-24 -12 -49 -21 -56 -21 -7 0 -25 -6 -39
-14 -15 -8 -35 -17 -44 -20 -24 -7 -46 -61 -53 -131 -4 -33 -14 -74 -22 -91
-14 -28 -22 -32 -67 -37 -27 -2 -52 -10 -54 -16 -2 -6 -18 -11 -35 -11 -18 0
-37 -4 -43 -8 -23 -16 -44 -58 -44 -88 0 -17 -7 -45 -15 -60 -8 -16 -15 -39
-15 -50 0 -24 -17 -34 -60 -34 -16 0 -32 -4 -35 -10 -3 -5 -25 -10 -48 -10
-23 0 -51 -3 -63 -6 -23 -6 -54 -52 -54 -82 0 -11 -7 -25 -15 -32 -8 -7 -15
-27 -15 -44 0 -21 -8 -40 -23 -54 -21 -20 -34 -22 -123 -22 l-100 0 -37 -56
c-20 -31 -37 -61 -37 -67 0 -5 -9 -25 -21 -43 l-21 -34 -108 0 c-110 0 -140
-5 -140 -22 0 -8 -44 -71 -78 -113 -4 -5 -11 -18 -15 -27 -9 -24 -108 -24
-189 -2 -32 9 -60 15 -61 13 -26 -43 -80 -113 -110 -142 -37 -36 -42 -38 -81
-32 -22 4 -45 11 -51 15 -5 4 -26 11 -45 15 -19 4 -40 12 -47 17 -15 12 -50
-12 -105 -68 -72 -75 -74 -76 -133 -69 -30 4 -56 13 -59 20 -3 8 -19 13 -36
13 -17 -1 -36 4 -42 10 -21 21 -46 13 -89 -28 -23 -22 -48 -40 -56 -40 -7 0
-16 -7 -19 -15 -4 -8 -11 -15 -17 -15 -6 0 -19 -7 -29 -17 -17 -15 -19 -15
-36 0 -10 10 -26 17 -34 17 -9 0 -21 7 -28 15 -7 8 -20 15 -30 15 -10 0 -20 7
-24 15 -3 8 -17 15 -31 15 -14 0 -25 5 -25 10 0 12 -41 -9 -53 -27 -4 -7 -16
-13 -26 -13 -10 0 -31 -13 -47 -30 -40 -40 -88 -40 -147 0 -25 17 -48 30 -52
30 -4 0 -13 8 -20 17 -19 25 -84 20 -129 -11 -20 -13 -57 -34 -82 -46 l-45
-22 -32 29 c-18 16 -52 45 -77 63 -25 19 -47 37 -50 40 -12 15 -40 18 -50 4
-7 -8 -20 -14 -29 -14 -9 0 -29 -7 -45 -15 -15 -8 -36 -15 -46 -15 -10 0 -26
-7 -34 -16 -9 -8 -16 -11 -16 -5 0 6 -11 13 -24 17 -13 3 -56 37 -95 75 -66
65 -91 81 -91 60 0 -6 -21 -13 -47 -17 -27 -3 -53 -11 -60 -16 -6 -5 -31 -9
-54 -10 -36 0 -47 5 -66 28 -13 16 -35 42 -49 59 -13 16 -24 33 -24 37 0 4
-10 18 -21 29 -20 20 -25 21 -55 10 -19 -7 -38 -10 -43 -6 -5 3 -12 1 -16 -5
-3 -5 -37 -10 -75 -10 l-68 0 -22 42 c-12 24 -33 53 -46 65 -13 12 -24 28 -24
36 0 31 -24 37 -142 37 -104 0 -119 2 -124 18 -3 9 -10 24 -15 32 -5 8 -13 25
-18 37 -6 11 -15 24 -20 28 -6 3 -11 16 -11 29 0 45 -27 56 -142 56 l-106 0
-21 40 c-12 22 -21 49 -21 59 0 10 -7 24 -15 31 -8 7 -15 25 -15 40 0 34 -36
60 -94 67 -22 2 -50 9 -61 13 -11 5 -38 11 -60 12 -39 3 -40 4 -43 45 -2 23
-10 47 -18 53 -7 7 -14 25 -14 41 0 15 -8 44 -17 63 -14 27 -24 36 -44 36 -15
0 -43 7 -64 16 -21 8 -50 14 -65 12 -40 -4 -70 36 -70 95 0 24 -3 65 -6 90 -6
44 -9 47 -68 76 -34 17 -69 31 -77 31 -9 0 -22 6 -29 14 -6 8 -21 16 -33 18
-21 3 -22 9 -25 116 -1 61 -7 112 -12 112 -5 0 -29 14 -53 30 -25 17 -49 30
-55 30 -5 0 -15 7 -22 15 -7 8 -20 15 -29 15 -9 0 -27 12 -40 26 -23 24 -23
27 -8 35 14 8 17 25 17 96 0 79 -2 88 -26 109 -14 13 -27 24 -29 24 -2 0 -21
12 -42 26 -21 14 -47 30 -58 34 -31 12 -51 55 -37 83 6 12 14 56 17 97 l6 76
-52 44 c-109 95 -104 87 -102 153 2 37 9 67 18 77 17 18 21 85 5 95 -5 3 -12
-7 -15 -22z"/>
<path d="M11195 7070 c-7 -12 4 -81 17 -97 5 -6 12 -37 15 -68 l6 -56 -44 -40
c-24 -21 -51 -46 -60 -54 -9 -8 -21 -15 -27 -15 -6 0 -14 -6 -19 -12 -11 -18
-3 -180 9 -196 6 -6 8 -25 5 -41 -4 -21 -2 -31 9 -35 23 -9 28 20 14 82 -7 31
-15 81 -18 110 -4 59 -1 64 73 114 22 14 54 39 71 55 l32 28 -18 55 c-10 30
-19 65 -19 77 -1 12 -5 25 -11 28 -5 3 -10 19 -10 35 0 30 -14 47 -25 30z"/>
<path d="M5413 6995 c-5 -15 9 -48 55 -132 17 -30 36 -30 26 0 -3 12 -11 24
-15 25 -5 2 -9 15 -9 28 0 14 -7 27 -15 30 -8 4 -15 17 -15 29 0 29 -18 42
-27 20z"/>
<path d="M5076 6934 c-20 -19 -20 -23 0 -46 16 -16 15 -18 -2 -24 -11 -4 -35
-20 -55 -36 -20 -15 -44 -28 -52 -28 -8 0 -20 -7 -27 -15 -7 -8 -18 -15 -24
-15 -6 0 -29 -14 -50 -30 -22 -17 -45 -30 -52 -30 -6 0 -17 -7 -24 -15 -16
-19 -64 -19 -80 0 -10 12 -15 12 -36 -2 -32 -20 -30 -41 6 -80 17 -18 30 -38
30 -46 0 -8 7 -20 15 -27 8 -7 15 -21 15 -31 0 -28 15 -31 43 -9 17 13 23 27
20 40 -7 27 62 90 100 90 31 0 66 -33 67 -63 0 -10 7 -20 15 -23 8 -3 17 -14
20 -25 7 -21 36 -25 66 -9 26 15 24 32 -11 71 -16 19 -30 42 -30 51 0 9 -7 21
-16 26 -25 14 -14 56 16 60 14 2 29 10 33 18 4 8 18 14 30 14 13 0 28 5 34 11
9 9 14 5 18 -14 4 -14 13 -28 21 -31 8 -3 14 -16 14 -30 0 -13 7 -26 15 -30 8
-3 15 -14 15 -24 0 -11 -7 -25 -15 -32 -21 -17 -19 -42 7 -69 19 -22 22 -22
33 -7 7 9 20 16 29 16 21 0 55 38 56 61 0 9 -7 22 -15 29 -8 7 -15 17 -15 23
0 5 -10 24 -23 41 -12 17 -33 54 -47 81 -13 28 -34 61 -47 75 -13 14 -23 32
-23 40 0 14 -41 60 -53 60 -3 0 -13 -7 -21 -16z"/>
<path d="M10008 6899 c-13 -23 -29 -53 -37 -68 -8 -14 -18 -27 -23 -29 -4 -2
-8 -11 -8 -21 0 -9 -13 -31 -30 -49 -16 -18 -30 -39 -30 -46 0 -8 -7 -19 -15
-26 -8 -7 -15 -19 -15 -28 0 -8 -7 -23 -15 -32 -13 -15 -12 -19 10 -40 21 -20
25 -21 31 -6 11 28 74 20 108 -14 16 -17 38 -30 48 -30 10 0 18 -4 18 -9 0 -5
10 -13 23 -17 12 -4 36 -17 53 -30 17 -13 35 -24 41 -24 6 0 22 -11 37 -25 19
-17 26 -34 26 -60 0 -30 3 -35 24 -35 34 0 56 10 56 25 0 7 7 18 15 25 8 7 15
20 15 29 0 9 14 30 30 48 17 18 30 38 30 46 0 8 7 20 15 27 8 7 15 20 15 29 0
9 14 29 30 45 35 35 42 93 13 102 -10 3 -25 10 -33 15 -30 19 -41 21 -65 15
-29 -7 -32 -30 -11 -71 16 -31 13 -47 -19 -90 -13 -17 -24 -39 -26 -50 -6 -31
-31 -28 -92 11 -58 38 -70 61 -42 84 8 7 15 17 15 23 0 5 11 25 25 43 29 38
29 41 13 58 -27 27 -55 25 -77 -5 -12 -15 -21 -32 -21 -38 0 -14 -53 -71 -66
-71 -7 0 -26 11 -42 25 -17 14 -37 25 -46 25 -22 0 -20 7 16 70 4 8 13 26 18
39 16 37 40 51 69 40 33 -13 47 -6 55 26 8 33 -12 59 -68 86 -22 10 -41 19
-43 19 -1 0 -13 -19 -25 -41z"/>
<path d="M5500 6811 c0 -11 14 -35 30 -53 17 -18 30 -37 30 -43 0 -5 14 -25
30 -44 17 -18 30 -39 30 -45 0 -7 17 -30 39 -52 21 -23 41 -49 45 -60 8 -24
149 -174 164 -174 7 0 12 -4 12 -10 0 -12 68 -80 80 -80 6 0 10 -6 11 -12 0
-13 102 -98 116 -98 5 0 21 -16 37 -35 16 -19 35 -35 43 -35 7 0 13 -4 13 -9
0 -5 11 -12 25 -15 14 -4 25 -11 25 -16 0 -6 7 -10 15 -10 7 0 18 -6 22 -12
10 -16 36 -33 93 -60 24 -11 50 -27 58 -34 7 -8 22 -14 32 -14 10 0 20 -7 24
-15 3 -8 12 -15 19 -15 8 0 20 -7 27 -15 7 -8 23 -15 36 -15 13 0 24 -4 24
-10 0 -5 16 -12 35 -16 19 -3 35 -10 35 -14 0 -5 15 -12 33 -15 17 -4 35 -12
38 -17 3 -5 23 -10 44 -11 21 -2 40 -8 43 -15 2 -7 16 -12 31 -12 15 0 36 -7
47 -15 10 -8 30 -15 44 -15 14 0 38 -7 54 -15 15 -8 47 -15 70 -15 23 0 51 -7
62 -15 13 -10 44 -14 95 -15 50 0 82 -5 95 -15 15 -12 66 -14 281 -15 150 0
264 4 268 9 3 6 -100 11 -259 13 -195 2 -268 6 -278 16 -7 7 -37 12 -70 12
-32 0 -75 7 -95 15 -19 8 -57 15 -83 15 -30 0 -52 6 -60 15 -7 8 -27 15 -44
15 -17 0 -40 7 -50 15 -11 8 -35 15 -53 15 -18 0 -33 4 -33 9 0 5 -21 12 -47
16 -25 4 -52 13 -60 21 -8 8 -25 14 -39 14 -13 0 -24 4 -24 10 0 5 -12 13 -27
16 -15 4 -38 13 -52 20 -14 8 -30 14 -34 14 -5 0 -15 7 -23 15 -9 8 -24 15
-35 15 -10 0 -19 4 -19 8 0 5 -21 19 -47 32 -27 13 -50 26 -53 29 -3 3 -25 16
-50 29 -57 29 -82 44 -95 58 -20 21 -105 86 -105 80 0 -3 -28 21 -62 54 -35
33 -65 60 -68 60 -3 0 -39 31 -80 70 -41 38 -78 70 -82 70 -5 0 -8 5 -8 11 0
13 -62 91 -112 141 -21 21 -38 42 -38 46 0 13 -150 236 -160 240 -6 2 -10 -5
-10 -17z"/>
<path d="M10759 6483 c-7 -18 -17 -33 -21 -33 -4 0 -8 -10 -8 -21 0 -12 -7
-27 -16 -33 -10 -8 -14 -22 -12 -37 4 -20 6 -21 11 -6 17 43 35 75 56 100 7 9
11 26 8 39 -4 21 -5 21 -18 -9z"/>
<path d="M11033 6433 c-25 -17 -30 -33 -10 -33 13 1 57 34 57 44 0 11 -25 5
-47 -11z"/>
<path d="M9339 6370 c-40 -38 -76 -70 -80 -70 -4 0 -11 -9 -14 -20 -4 -11 -18
-27 -33 -34 -15 -8 -51 -37 -79 -65 -29 -28 -57 -51 -62 -51 -5 0 -11 -7 -15
-15 -3 -8 -12 -15 -21 -15 -9 0 -28 -12 -43 -27 -15 -16 -43 -37 -62 -47 -19
-11 -39 -25 -43 -33 -4 -7 -17 -13 -27 -13 -11 0 -20 -4 -20 -10 0 -16 40 -12
46 5 4 8 17 15 30 15 13 0 24 4 24 9 0 5 24 24 53 41 28 18 64 45 79 61 15 16
31 29 36 29 20 0 272 241 272 260 0 5 7 10 15 10 8 0 19 9 25 20 21 39 -9 20
-81 -50z"/>
<path d="M9690 6360 c-69 -15 -190 -105 -190 -141 0 -9 -7 -22 -15 -29 -9 -8
-15 -30 -15 -60 0 -30 6 -52 15 -60 8 -7 15 -20 15 -29 0 -22 65 -51 116 -51
26 0 66 14 119 40 99 50 153 54 184 14 12 -15 21 -30 21 -34 0 -4 -22 -31 -49
-59 -54 -57 -95 -69 -129 -38 -25 22 -31 22 -63 -9 -30 -28 -29 -64 2 -64 10
0 22 -6 26 -12 13 -21 51 -39 58 -28 3 6 22 10 42 10 30 0 44 9 97 63 83 83
96 106 96 166 0 43 -5 55 -34 85 -18 20 -42 36 -53 36 -10 0 -24 5 -29 10 -8
8 -19 8 -38 0 -15 -5 -40 -10 -55 -10 -16 0 -34 -7 -41 -15 -7 -8 -19 -15 -28
-15 -8 0 -23 -6 -31 -14 -19 -17 -92 -29 -107 -19 -22 16 -31 46 -24 78 8 36
31 62 78 87 27 14 33 14 43 2 6 -8 26 -14 45 -14 54 0 67 47 24 90 -21 21 -47
28 -80 20z"/>
<path d="M10672 6320 c-18 -38 -36 -64 -49 -73 -7 -4 -13 -14 -13 -21 0 -7
-13 -32 -30 -54 -16 -23 -30 -47 -30 -52 0 -6 -11 -21 -24 -33 -24 -23 -44
-67 -29 -67 11 0 53 51 53 65 0 7 6 15 14 18 8 3 22 24 32 46 10 23 21 41 25
41 9 0 39 58 39 76 0 7 7 17 16 22 10 5 14 18 12 33 l-4 24 -12 -25z"/>
<path d="M5511 6249 c-30 -16 -59 -29 -66 -29 -7 0 -18 -7 -25 -15 -7 -8 -23
-15 -37 -15 -13 0 -26 -7 -29 -15 -4 -8 -17 -15 -30 -15 -14 0 -27 -7 -30 -15
-4 -8 -17 -15 -30 -15 -14 0 -27 -7 -30 -15 -4 -8 -16 -15 -29 -15 -12 0 -28
-7 -36 -16 -9 -11 -22 -14 -42 -10 -16 3 -37 1 -48 -5 -18 -9 -16 -15 37 -75
31 -35 62 -64 69 -64 18 0 45 34 45 57 0 22 18 33 54 33 25 0 126 -97 126
-120 -1 -23 -36 -60 -58 -60 -11 0 -27 -11 -36 -25 -16 -24 -16 -26 1 -32 9
-4 35 -26 58 -50 62 -64 92 -55 92 27 1 31 10 63 32 102 17 32 31 64 31 73 0
8 4 15 10 15 5 0 13 12 16 26 7 28 60 132 75 149 5 5 9 17 9 26 0 10 7 25 16
34 16 15 14 19 -22 56 -21 21 -45 39 -54 38 -8 0 -39 -13 -69 -30z m17 -117
c2 -13 -3 -25 -12 -28 -9 -3 -16 -17 -16 -30 0 -14 -7 -27 -15 -30 -8 -4 -15
-17 -15 -30 0 -34 -30 -31 -63 6 -41 45 -33 70 24 83 14 4 36 17 50 31 28 28
43 28 47 -2z"/>
<path d="M10438 5964 c-18 -25 -53 -70 -78 -100 -77 -92 -100 -122 -100 -128
0 -7 -38 -46 -45 -46 -7 0 -100 -101 -104 -113 -5 -15 -43 -53 -58 -58 -6 -2
-53 -44 -105 -93 -51 -49 -105 -96 -119 -105 -14 -9 -47 -35 -74 -59 -26 -23
-53 -42 -60 -42 -7 0 -15 -3 -17 -8 -5 -11 -81 -68 -100 -75 -10 -4 -18 -11
-18 -17 0 -5 -6 -10 -13 -10 -8 0 -33 -13 -55 -30 -23 -16 -48 -30 -55 -30 -7
0 -26 -13 -42 -30 -16 -16 -34 -30 -39 -30 -12 0 -137 -61 -146 -71 -10 -11
-91 -49 -105 -49 -8 0 -15 -4 -15 -10 0 -5 -8 -10 -18 -10 -9 0 -34 -9 -55
-20 -20 -11 -42 -20 -48 -20 -6 0 -17 -7 -25 -15 -9 -8 -24 -15 -35 -15 -10 0
-19 -4 -19 -10 0 -5 -14 -10 -30 -10 -17 0 -47 -9 -67 -20 -21 -11 -45 -20
-55 -20 -9 0 -20 -4 -23 -10 -3 -5 -18 -10 -33 -10 -15 0 -40 -7 -56 -15 -15
-8 -40 -15 -55 -15 -14 0 -35 -7 -45 -15 -11 -8 -35 -15 -53 -15 -18 0 -50 -6
-70 -14 -21 -8 -62 -17 -92 -20 -30 -3 -59 -10 -65 -16 -5 -5 -40 -10 -76 -10
-37 0 -71 -5 -78 -12 -7 -7 -66 -14 -149 -18 -86 -3 -147 -11 -163 -19 -19
-11 -68 -13 -244 -8 -126 4 -224 11 -230 17 -5 5 -59 10 -121 10 -78 0 -116 4
-130 14 -24 16 -148 25 -155 11 -3 -6 22 -13 58 -16 35 -3 68 -11 75 -18 6 -6
43 -11 88 -11 42 0 95 -7 119 -15 34 -12 101 -15 349 -15 168 1 326 5 351 11
25 5 79 13 121 18 42 4 82 12 89 16 8 5 46 12 84 16 68 7 103 14 210 45 26 8
64 14 82 14 19 0 34 4 34 9 0 5 19 12 42 16 24 4 53 14 65 22 13 9 30 12 39 9
9 -3 28 0 42 8 34 19 90 42 120 51 12 3 22 11 22 16 0 5 15 9 34 9 18 0 39 7
46 15 7 8 22 15 34 15 12 0 31 7 42 15 10 8 26 15 35 15 9 0 22 7 29 15 7 8
23 15 36 15 13 0 24 4 24 9 0 5 46 32 101 60 56 28 121 65 146 81 24 17 49 30
55 30 6 0 27 14 47 30 56 48 60 50 69 50 5 0 25 13 43 30 19 16 39 30 45 30 5
0 23 13 40 28 16 16 47 41 69 55 22 14 62 46 88 71 27 25 55 49 62 53 7 5 45
38 84 76 39 37 75 67 81 67 5 0 10 5 10 11 0 6 29 40 65 75 36 36 65 68 65 73
0 4 16 24 35 44 19 20 35 40 35 45 0 6 6 12 14 15 8 3 41 41 74 84 33 43 67
84 76 92 17 15 22 51 6 51 -5 0 -24 -21 -42 -46z"/>
<path d="M9195 5955 c-16 -13 -35 -24 -41 -25 -6 0 -23 -10 -38 -21 -19 -15
-26 -29 -24 -47 3 -23 8 -26 43 -26 30 -1 40 -5 43 -19 2 -10 24 -47 48 -83
24 -35 44 -70 44 -77 0 -7 11 -24 25 -39 19 -21 25 -38 25 -72 0 -39 -5 -51
-35 -81 -30 -29 -43 -35 -78 -35 -49 1 -76 20 -106 76 -25 45 -36 64 -73 117
-16 22 -28 46 -28 52 0 7 -7 15 -15 19 -8 3 -15 14 -15 24 0 11 7 25 15 32 31
26 8 73 -27 56 -7 -3 -26 -15 -43 -26 -16 -10 -49 -29 -73 -41 -36 -19 -42
-27 -40 -49 3 -21 7 -25 32 -22 32 4 61 -18 82 -63 24 -52 61 -109 73 -113 6
-2 11 -13 11 -25 0 -13 23 -44 55 -76 l54 -53 78 4 c69 3 84 7 128 38 48 33
95 89 95 112 0 6 8 20 17 30 15 17 15 23 4 51 -7 18 -16 44 -18 60 -3 15 -9
27 -13 27 -4 0 -18 19 -30 43 -12 23 -28 46 -36 50 -8 4 -14 15 -14 23 0 8
-13 33 -30 56 -34 46 -38 82 -13 97 17 9 16 11 -1 30 -25 27 -44 26 -81 -4z"/>
<path d="M8769 5931 c-25 -16 -54 -30 -64 -32 -10 -2 -20 -10 -23 -16 -6 -19
47 -16 54 2 4 8 14 15 24 15 11 0 22 5 25 11 4 5 18 14 32 20 13 5 21 13 18
19 -9 14 -15 13 -66 -19z"/>
<path d="M5958 5929 c-22 -12 -24 -55 -3 -63 8 -3 15 -15 15 -26 0 -11 -7 -23
-15 -26 -8 -4 -15 -14 -15 -24 0 -10 -7 -25 -15 -33 -8 -8 -24 -33 -36 -56
-11 -22 -25 -41 -30 -41 -5 0 -9 -11 -9 -25 0 -14 -4 -25 -9 -25 -5 0 -19 -20
-31 -44 -20 -41 -25 -45 -63 -48 -34 -2 -43 -7 -45 -25 -2 -16 7 -26 42 -44
25 -12 46 -26 46 -30 0 -12 74 -45 91 -42 22 5 30 39 13 54 -16 13 -19 59 -4
59 6 0 10 6 10 14 0 8 11 28 25 44 29 35 48 33 94 -8 26 -24 31 -36 31 -73 0
-25 -7 -58 -15 -73 -26 -50 -19 -86 23 -126 l37 -37 24 20 c22 18 23 21 7 37
-20 23 -20 36 -1 52 8 7 15 23 15 35 0 13 7 25 15 29 19 7 19 46 -1 74 -17 25
-11 42 15 42 10 0 24 7 31 15 7 8 20 15 30 15 23 0 60 70 60 113 0 20 -13 51
-32 81 -32 47 -47 60 -129 105 -19 11 -41 27 -48 35 -8 9 -20 16 -28 16 -8 0
-26 9 -40 20 -29 23 -32 23 -55 9z m152 -159 c0 -6 11 -15 25 -20 32 -12 45
-46 38 -98 -5 -36 -9 -41 -39 -46 -36 -7 -84 1 -84 14 0 5 -10 10 -21 12 -34
5 -47 33 -26 56 9 10 17 25 17 32 0 22 42 60 67 60 13 0 23 -5 23 -10z"/>
<path d="M8616 5855 c-8 -8 -26 -15 -41 -15 -14 0 -28 -7 -31 -15 -4 -8 -17
-15 -30 -15 -14 0 -27 -7 -30 -15 -4 -8 -17 -15 -29 -15 -29 0 -55 -10 -55
-20 0 -11 74 0 78 11 2 5 10 9 18 9 21 0 114 42 114 52 0 4 10 8 23 8 12 0 28
4 35 9 11 7 10 10 -3 15 -24 9 -32 8 -49 -9z"/>
<path d="M8314 5735 c-10 -8 -35 -15 -54 -15 -40 0 -80 -19 -45 -21 53 -3 100
4 112 17 8 8 25 14 39 14 13 0 24 5 24 10 0 15 -54 12 -76 -5z"/>
<path d="M8085 5680 c-4 -6 13 -10 44 -10 28 0 51 5 51 10 0 6 -20 10 -44 10
-25 0 -48 -4 -51 -10z"/>
<path d="M7915 5650 c-4 -6 21 -10 69 -10 41 0 78 5 81 10 4 6 -21 10 -69 10
-41 0 -78 -4 -81 -10z"/>
<path d="M6557 5603 c-13 -12 -7 -51 8 -57 11 -4 15 -20 15 -56 0 -36 -4 -52
-15 -56 -10 -4 -15 -20 -15 -48 0 -23 -7 -51 -15 -62 -8 -10 -15 -33 -15 -50
0 -18 -7 -45 -15 -60 -8 -16 -15 -39 -15 -51 0 -17 -6 -23 -23 -23 -25 0 -72
-42 -60 -53 3 -4 16 -7 27 -7 12 0 30 -7 40 -15 11 -8 36 -15 57 -15 20 0 50
-7 65 -15 27 -14 30 -13 37 3 9 20 -7 72 -22 72 -15 0 -1 132 15 151 8 9 14
38 14 67 0 60 12 66 37 20 13 -25 18 -68 22 -183 l6 -149 27 -16 c27 -14 29
-14 68 25 22 21 40 43 40 48 0 5 12 26 28 46 15 20 32 43 37 52 41 67 91 139
98 139 16 0 19 -32 3 -49 -9 -10 -16 -31 -16 -48 0 -17 -7 -36 -15 -43 -9 -7
-15 -29 -15 -55 0 -46 -30 -90 -65 -97 -27 -4 -33 -46 -8 -54 10 -3 26 -10 35
-15 10 -5 30 -9 46 -9 15 0 37 -7 48 -15 31 -24 52 -18 59 16 6 24 2 35 -14
51 -23 21 -24 69 -2 91 6 6 11 25 11 42 0 16 7 43 15 59 8 15 15 40 15 55 0
15 6 36 14 47 8 11 16 33 18 49 2 22 9 31 24 33 12 2 31 13 43 26 l22 23 -36
22 c-20 11 -50 21 -66 21 -16 0 -41 7 -55 16 -24 16 -26 16 -54 -11 -16 -15
-36 -43 -45 -61 -9 -19 -20 -34 -24 -34 -4 0 -16 -16 -27 -37 -10 -20 -29 -48
-42 -61 -12 -14 -25 -36 -28 -48 -3 -12 -12 -25 -20 -28 -8 -3 -14 -14 -14
-25 0 -11 -4 -22 -9 -25 -10 -7 -31 46 -31 80 0 13 -4 26 -10 29 -6 4 -10 64
-10 148 0 78 -4 148 -8 155 -5 7 -26 15 -48 18 -21 3 -53 12 -71 20 -34 15
-56 18 -66 7z"/>
<path d="M8348 5551 c-64 -31 -108 -68 -108 -92 0 -9 -7 -22 -15 -29 -21 -18
-20 -213 1 -231 8 -6 14 -19 14 -29 0 -10 6 -23 14 -29 8 -7 17 -23 20 -36 4
-14 12 -25 19 -25 7 0 28 -13 47 -30 33 -27 40 -29 121 -30 65 0 90 4 99 15 7
8 20 15 29 15 20 0 91 70 91 90 0 8 7 24 15 34 21 27 21 149 0 166 -8 7 -15
27 -15 45 0 18 -7 38 -15 45 -8 7 -15 20 -15 29 0 18 -29 47 -63 62 -12 5 -40
20 -62 34 -53 32 -105 31 -177 -4z m175 -94 c20 -19 37 -41 37 -50 0 -8 7 -23
16 -32 13 -12 17 -38 18 -110 1 -80 -2 -98 -19 -121 -24 -32 -111 -62 -128
-45 -6 6 -19 11 -29 11 -24 0 -58 35 -58 60 0 11 -7 23 -15 26 -8 4 -15 16
-15 28 -1 11 -7 32 -15 46 -19 34 -20 126 -1 133 8 3 16 16 18 29 2 15 11 24
26 26 13 2 26 10 29 18 3 9 21 14 52 14 38 0 52 -6 84 -33z"/>
<path d="M7815 5431 c-88 -6 -90 -7 -90 -31 0 -19 6 -26 26 -28 22 -3 27 -10
37 -53 26 -112 19 -119 -115 -119 l-104 0 3 82 c3 78 4 82 28 88 18 4 25 12
25 30 0 25 0 25 -112 28 l-113 3 0 -31 c0 -23 6 -33 24 -39 13 -5 26 -17 30
-26 3 -9 6 -95 6 -192 l0 -175 -29 -26 c-24 -20 -28 -29 -20 -44 8 -16 23 -18
115 -18 l105 0 -3 37 c-2 30 -8 38 -28 43 -24 6 -25 9 -25 75 l0 70 115 0 115
0 3 -59 c2 -62 -8 -86 -39 -86 -16 0 -19 -8 -19 -41 0 -39 1 -40 28 -35 15 4
62 10 106 15 43 5 83 14 88 19 17 17 2 39 -31 45 -24 5 -31 12 -31 29 0 13 -3
46 -8 73 -4 28 -7 106 -7 174 0 125 0 125 25 131 18 4 26 14 28 33 2 15 -1 27
-7 27 -5 0 -15 1 -23 3 -7 2 -53 1 -103 -2z"/>
</g>
</svg>
